<svg width="90" height="90" viewBox="0 0 90 90" fill="none" xmlns="http://www.w3.org/2000/svg">
<path d="M35.2436 79.3636C38.0643 78.5054 37.9254 76.7054 34.4465 69.0329C32.5842 64.9257 31.0508 62.8677 29.1019 61.8599L26.3689 60.4466L25.8229 63.8071C25.0625 68.487 22.7204 74.9275 21.0996 76.7959C20.171 77.8663 18.5769 78.3208 16.0721 78.2291C13.3536 78.1296 13.0469 77.9979 14.8871 77.7199C18.3893 77.1909 19.8773 74.3627 20.569 66.9208C21.0815 61.4063 20.8958 59.9069 19.2968 56.6504C18.267 54.5531 17.2144 52.1319 16.9578 51.2698C16.6296 50.1676 15.5681 49.7024 13.3811 49.7024C9.68097 49.7024 8.93668 48.7791 9.72895 45.172C10.9308 39.6998 18.8342 37.585 23.1013 41.5937C25.2976 43.657 25.4656 43.6742 32.3062 42.5371C36.1385 41.9 39.7778 40.9856 40.3936 40.5049C41.0559 39.9878 41.5131 37.5474 41.5131 34.5292C41.5131 24.9331 45.3015 16.3854 51.3866 12.2518C55.7031 9.31956 64.4467 9.72402 68.0214 13.0213C74.6437 19.1297 73.9062 27.1543 65.9823 35.2058L61.1433 40.1227L63.3758 42.4529C65.2743 44.4344 65.6484 45.7739 65.876 51.4033C66.0991 56.9227 66.4402 58.188 67.9278 59.0129C68.9091 59.5572 70.8133 60.8746 72.1594 61.9407C73.5054 63.0067 76.0276 64.3479 77.7643 64.921C81.1483 66.0378 81.6008 67.5795 80.362 73.7731C79.8421 76.3729 79.5394 76.5695 76.1077 76.5369L72.4131 76.5019L75.324 75.2367C77.2595 74.3954 78.2349 73.3519 78.2349 72.1225C78.2349 70.8856 77.2712 69.8666 75.324 69.0444C65.3128 64.8175 62.7361 63.4616 60.5394 61.2649C58.7515 59.477 57.7799 59.0626 56.964 59.7397C55.3313 61.0947 55.5867 63.0296 58.0629 68.0633C60.7407 73.507 60.8539 75.3286 58.5894 76.5405C56.3652 77.7308 45.9914 77.7568 45.9914 76.572C45.9914 75.707 48.8457 75.3148 52.8471 75.6301C55.8417 75.866 56.2636 73.9794 53.8045 71.3492C50.8401 68.1785 48.6783 63.7698 48.6783 60.895C48.6783 59.6129 49.6753 57.0968 50.8937 55.3036C53.6375 51.2659 53.0082 50.2583 49.862 53.6514C47.1907 56.5322 42.6619 58.6589 39.1983 58.6589C37.1455 58.6589 36.9122 58.9304 37.4663 60.6742C39.0904 65.7857 40.6789 74.503 40.4369 76.976C40.1912 79.4869 39.8811 79.7204 36.587 79.8758C33.7353 80.0104 33.4612 79.9059 35.2436 79.3636V79.3636ZM52.8731 38.1345C64.0781 34.8565 71.0818 27.5047 69.752 20.4167C68.9407 16.0918 64.0799 11.1825 60.6353 11.209C56.9014 11.2378 51.1869 14.1088 48.4943 17.3087C45.8774 20.4188 43.3044 30.0466 43.3044 36.7287C43.3044 40.2343 43.5439 40.8017 44.8718 40.4417C45.7339 40.208 49.3345 39.1698 52.8731 38.1345Z" fill="black"/>
</svg>
