<svg width="91" height="90" viewBox="0 0 91 90" fill="none" xmlns="http://www.w3.org/2000/svg">
<path d="M36.8129 71.1845C33.4157 68.0943 28.954 67.6502 24.9669 70.0055C22.5786 71.4163 22.3415 71.3949 20.0058 69.5576C18.2604 68.1847 16.3003 67.6282 13.2104 67.6282H8.86804L12.7466 63.5802C14.8799 61.3539 17.7192 57.2981 19.0563 54.5674C20.3934 51.8368 21.7648 49.7468 22.1039 49.923C30.4355 54.2519 35.5554 56.1909 39.8158 56.6306C44.8602 57.1512 44.9213 57.1296 44.4282 55.004C42.6528 47.3515 42.6026 46.5847 43.9507 47.7035C45.5869 49.0614 50.2737 47.2069 49.6185 45.4608C48.9321 43.6313 50.4724 44.1827 52.7144 46.5691C54.2815 48.2372 55.0999 48.5543 55.9714 47.831C58.0643 46.0941 60.9333 36.8655 61.4419 30.2347L61.9399 23.7412L65.6172 23.7019C70.3317 23.6515 74.8766 22.0113 78.9853 18.8774L82.245 16.3911L79.0724 22.4779C76.7748 26.8859 75.9666 29.4909 76.1423 31.923C76.3406 34.6709 75.9406 35.6308 73.9413 37.2034C70.3179 40.0535 68.8466 43.6196 68.8466 49.5516C68.8466 54.7366 68.7697 54.9019 65.2858 57.2075C60.4588 60.4018 58.7002 63.3519 58.7725 68.1339C58.8055 70.3188 58.7527 72.1064 58.6551 72.1064C58.5574 72.1064 56.8964 71.3003 54.964 70.3151C53.0315 69.3299 50.4273 68.5253 49.1768 68.5271C46.6289 68.5312 41.0814 71.5884 41.0814 72.9889C41.0814 74.49 39.8957 73.9888 36.8129 71.1845Z" fill="black"/>
</svg>
