<svg width="90" height="90" viewBox="0 0 90 90" fill="none" xmlns="http://www.w3.org/2000/svg">
<path d="M40.9627 71.7775C39.7301 71.0601 39.4726 70.0965 39.8329 67.5504L40.2996 64.2525L39.394 67.1427C38.3474 70.4829 35.886 72.0947 32.4389 71.6969C29.589 71.368 28.6611 68.1706 30.796 66.0357C32.2843 64.5475 32.1501 62.4895 29.8154 50.9911C28.5853 44.9329 27.9839 43.6597 25.312 41.4573C23.6159 40.0592 20.0628 38.2343 17.4163 37.4018C14.7697 36.5694 11.5856 35.087 10.3405 34.1076C7.5247 31.8927 7.2213 27.9786 9.86543 27.9786C12.1957 27.9786 18.8245 21.9764 18.8245 19.8664C18.8245 17.5177 20.4806 16.8307 22.2601 18.4412C23.3028 19.3848 24.2138 19.5601 25.1145 18.9905C27.1214 17.7214 27.7313 17.933 28.7947 20.2668C29.9955 22.9024 33.082 24.3859 37.4515 24.4277C39.2756 24.4452 41.7756 25.0355 43.0071 25.7395C44.2387 26.4435 47.463 27.0419 50.1724 27.0692C62.8293 27.197 73.8007 30.6522 78.9069 36.1184L81.5202 38.9159V54.9621V71.0083L79.2115 72.0602C75.8442 73.5945 73.9216 72.0408 73.8474 67.7256C73.7332 61.0849 73.4089 60.458 72.051 64.2525C69.2792 71.9981 67.2668 73.8241 63.641 71.8837C61.7314 70.8617 61.1728 67.8904 62.7115 66.9395C63.2041 66.635 63.6071 63.9915 63.6071 61.0649V55.7438L58.4571 55.7316C55.6246 55.7249 52.4899 55.4998 51.4911 55.2314C49.8268 54.7842 49.5924 55.3611 48.6853 62.1364C47.9044 67.9685 47.2741 69.8706 45.6999 71.1453C43.4081 73.0011 43.1291 73.0384 40.9627 71.7775Z" fill="black"/>
</svg>
