<svg width="90" height="91" viewBox="0 0 90 91" fill="none" xmlns="http://www.w3.org/2000/svg">
<path d="M15.2618 78.0397C11.0859 73.8638 12.6483 70.7473 21.1605 66.2743C28.4991 62.418 30.1144 60.3932 32.2221 52.4086C34.3003 44.5359 38.2807 37.806 42.7919 34.5382C46.5699 31.8014 53.8007 29.1859 57.5888 29.1859C60.6426 29.1859 61.0211 27.0499 59.2069 20.055C57.2169 12.3824 57.8835 11.2723 63.2028 13.4007C67.0464 14.9386 68.9268 14.557 71.2401 11.7696C72.6888 10.0241 75.4081 9.96237 76.0597 11.6602C76.3305 12.3659 76.8191 15.3041 77.1456 18.1896C77.6236 22.4151 77.46 23.6676 76.3049 24.6263C75.1323 25.5994 74.9748 26.9369 75.4413 31.9568C76.0026 37.9958 75.9605 38.1601 72.8862 41.9262C68.991 46.6979 67.3588 51.5292 67.93 56.5966C68.3196 60.0534 69.075 61.6469 72.6041 66.4565C74.0467 68.4225 71.7481 70.0025 68.9138 68.993C65.9308 67.9307 63.225 64.3572 62.4251 60.4238C61.5165 55.9552 58.6404 55.8771 55.6753 60.2405C52.7896 64.4873 52.8003 64.8277 55.8307 65.1764C57.5943 65.3793 58.3751 66.0321 58.58 67.475C58.8637 69.4729 58.7693 69.4903 47.6504 69.4903C41.4543 69.4903 35.4743 69.0527 34.2891 68.5127C32.5287 67.7106 31.0504 67.992 26.0535 70.0801C18.929 73.0573 17.3358 74.8495 19.5945 77.3453C21.5958 79.5568 21.5246 80.2381 19.2922 80.2381C18.2846 80.2381 16.4709 79.2488 15.2618 78.0397Z" fill="black"/>
</svg>
