<svg width="91" height="91" viewBox="0 0 91 91" fill="none" xmlns="http://www.w3.org/2000/svg">
<path d="M56.0991 78.5475H52.1243L48.9498 78.2734L45.7753 77.9993V77.0614V76.1234L44.4079 77.3073L43.0404 78.4912L43.3648 76.7531L43.6893 75.0151H46.2041H48.7189L48.4338 71.4835L48.1488 67.952L47.3853 66.4638L46.6218 64.9755V61.0401V57.1047L43.4473 56.5084L40.2729 55.9122L37.7333 55.8752L35.1937 55.8382L29.3798 56.349L23.5659 56.8598L20.5687 58.7047L17.5714 60.5495L13.8599 61.2729L10.1483 61.9962L10.4542 60.9993L10.76 60.0023L15.1825 57.2183L19.605 54.4344L18.5108 54.0345L17.4166 53.6345L21.4794 51.0782L25.5423 48.522L28.2516 46.5717L30.961 44.6215L38.9054 39.6062L46.8497 34.5909L50.0227 31.1801L53.1958 27.7692L55.483 22.6913L57.7702 17.6134L59.8978 15.2669L62.0254 12.9204L64.9352 12.3509L67.9872 12.1135L70.5662 12.6841L73.2875 13.5868L76.462 14.0947L79.6839 14.65L80.9647 15.6828L79.6364 15.8618L76.462 16.4003L73.2875 16.5119L76.462 17.4392L79.6364 18.3664L80.8224 19.6156L79.6364 19.8211H77.1618H74.6872L71.9726 22.204L69.258 24.5868L69.7558 30.8142L70.2535 37.0416L68.3449 41.92L66.4364 46.7984L63.5232 51.1926L60.6101 55.5868L60.5998 56.1755L60.5895 56.7643L59.8189 57.5002L59.0483 58.2361L59.6701 56.9114L60.2918 55.5868L58.9593 57.301L57.6267 59.0152V61.5268V64.0384L58.9891 66.2075L60.3515 68.3766L61.2362 67.8062L62.1209 67.2358L61.5827 68.1442L61.0445 69.0527L63.1046 71.3715L65.1646 73.6904H66.8981H68.6316V74.6403V75.5902L63.3408 75.148L58.05 74.7058L57.6267 74.5351L57.2034 74.3643L56.4892 74.4965L55.7749 74.6287L56.1388 73.4972L56.5027 72.3657L57.904 72.3565L59.3053 72.3471L59.1009 71.4733L58.8965 70.5995L58.1987 70.8422L57.5009 71.0849L58.0567 70.1466L58.6126 69.2083L55.5264 65.6447L52.4402 62.081L53.0063 59.2755L53.5724 56.4699L52.4994 57.5405L51.4263 58.611L50.7962 63.4548L50.1661 68.2986L50.8595 71.506L51.5529 74.7134L52.0809 75.2642L52.6088 75.8149L56.6761 75.8565L60.7434 75.8981L60.4087 77.2227L60.074 78.5474H56.0991L56.0991 78.5475Z" fill="black"/>
</svg>
