<svg width="90" height="91" viewBox="0 0 90 91" fill="none" xmlns="http://www.w3.org/2000/svg">
<path d="M37.5587 82.0938C35.5019 80.037 34.3454 75.0277 33.7335 65.5248C33.1443 56.3766 33.8961 53.512 37.8171 49.9635C39.9441 48.0386 40.1496 45.4179 38.7154 38.5051C36.9842 30.1608 36.4149 29.7284 27.161 29.7284C19.4782 29.7284 19.0762 29.6289 17.5894 27.3597C15.5132 24.191 13.7444 15.3992 14.7775 13.3827C15.4253 12.1183 16.7787 11.8153 21.7788 11.8153C26.9133 11.8153 28.5433 11.4311 31.2766 9.57621C33.9759 7.74444 35.6533 7.33799 40.4968 7.34207C47.19 7.34771 52.432 8.55349 54.4242 10.5456C55.1665 11.288 56.276 13.5903 56.8896 15.6619C57.5032 17.7334 58.9003 20.7586 59.9942 22.3845C62.5638 26.2036 64.2846 34.3389 63.2097 37.5859C62.1842 40.6836 57.0384 44.2232 54.0656 43.8758C52.3635 43.6768 51.6581 42.9426 51.2299 40.924C50.6812 38.3379 50.6559 38.3641 50.5539 41.6239C50.4821 43.9177 50.8924 45.1812 51.8252 45.5392C53.4976 46.181 60.6378 43.5712 62.1305 41.7725C63.6964 39.8858 64.5075 40.1708 65.1784 42.8437C65.5052 44.1458 67.9671 48.0159 70.6494 51.444C73.3694 54.9203 75.5262 58.5978 75.5262 59.7593C75.5262 62.8758 71.553 65.5545 66.9303 65.5545C58.4048 65.5545 51.1902 69.9058 43.456 79.7125C40.188 83.8563 39.5705 84.1056 37.5587 82.0938ZM51.9368 34.8784C51.6883 34.2626 51.485 34.7664 51.485 35.9979C51.485 37.2295 51.6883 37.7333 51.9368 37.1175C52.1852 36.5017 52.1852 35.4941 51.9368 34.8784Z" fill="black"/>
</svg>
