<svg width="91" height="91" viewBox="0 0 91 91" fill="none" xmlns="http://www.w3.org/2000/svg">
<path d="M17.9663 49.7437C16.2079 48.6039 18.8564 45.7042 20.7905 47.3094L17.9663 49.7437ZM21.5956 47.2423C23.338 48.6883 27.283 48.4971 29.1593 46.8543C32.012 44.3566 40.5227 40.1665 43.9769 39.5592C45.9473 39.2127 48.207 38.596 48.9984 38.1887C50.5107 37.4104 52.8257 30.0113 53.8058 22.8235C54.2691 19.4257 54.9752 18.1235 57.3265 16.3301C61.1373 13.4234 63.7427 13.4943 66.6806 16.5844C67.9866 17.9581 70.365 20.0008 71.966 21.1236C75.8645 23.8579 75.7242 25.2064 71.6108 24.5389L68.3447 24.0089L70.2673 25.8001C73.6435 28.9456 72.6306 30.2693 68.6073 27.9693C64.7303 25.753 62.5627 26.2545 61.8323 29.5367C60.9291 33.596 61.1575 37.0895 62.7178 43.0798C64.6962 50.6753 63.9848 52.5275 56.3323 59.7058L49.6422 65.9815L50.6855 69.1428C51.4726 71.5277 52.2289 72.3041 53.7648 72.3041C56.3949 72.3041 61.4421 74.0627 61.4421 74.979C61.4421 75.9392 56.5059 76.6534 51.5899 76.4043C48.207 76.233 47.5883 75.9232 47.739 74.4761C47.8377 73.5278 47.5144 71.2201 47.0205 69.3477C46.2336 66.365 45.8787 66.0272 44.154 66.6194C42.0153 67.3538 38.4689 67.3054 33.9008 66.4796C31.0651 65.967 30.9899 66.0354 30.9899 69.1288C30.9899 71.9025 31.2678 72.3041 33.1869 72.3041C35.7667 72.3041 39.9464 74.0545 39.9464 75.1348C39.9464 75.5484 39.4426 75.8922 38.8269 75.899C38.2111 75.9057 36.9012 76.0549 35.916 76.2304C34.9308 76.406 33.0162 76.3737 31.6613 76.1587C28.525 75.6609 27.0747 72.9532 27.7338 68.8261C28.1968 65.9271 27.9715 65.4264 25.5901 64.061C24.1265 63.2218 22.929 61.903 22.929 61.1301C22.929 60.3573 21.2998 57.9575 19.3086 55.7973C16.3125 52.5469 15.5234 51.7921 16.0207 49.8108" fill="black"/>
</svg>
