<svg width="90" height="91" viewBox="0 0 90 91" fill="none" xmlns="http://www.w3.org/2000/svg">
<path d="M29.6529 65.1963C28.5264 64.0697 30.2332 55.2969 32.2635 51.7785C33.4255 49.7648 34.3762 47.0253 34.3762 45.6907V43.2641L31.0175 45.8826C24.098 51.277 17.2792 51.9619 12.4764 47.745C9.23907 44.9026 7.01995 39.3893 8.04157 36.7271C8.78139 34.7991 9.18224 34.899 11.2492 37.5268C13.4731 40.354 18.0922 40.5098 24.524 37.9746C30.0052 35.8141 33.2564 35.7029 35.3571 37.604C36.7987 38.9086 37.1496 38.8599 39.6542 37.0082C43.0723 34.4811 50.6345 33.7366 57.4324 35.258C61.9278 36.264 62.5796 36.2071 64.7185 34.6225C66.0104 33.6653 68.4231 31.1059 70.08 28.9349C73.8256 24.027 74.4773 23.7707 75.1542 26.9393C75.906 30.458 78.1763 34.5698 80.3187 36.2926C83.1294 38.5528 81.7185 40.6616 77.3956 40.6616C75.4097 40.6616 73.7849 41.0337 73.7849 41.4886C73.7849 41.9435 72.3468 44.1997 70.5891 46.5024L67.3932 50.6892L69.6755 53.9824C72.6287 58.244 73.698 63.0529 71.6922 63.0529C70.7978 63.0529 69.9218 61.755 69.3281 59.5499C68.6849 57.1614 67.4646 55.4644 65.4922 54.2155L62.5995 52.384L61.8431 54.3598C61.4271 55.4464 61.2949 58.4515 61.5494 61.0377C61.8038 63.6239 61.6874 65.7398 61.2907 65.7398C59.6587 65.7398 58.5263 63.0045 57.9751 57.7309C57.3438 51.6912 57.3918 51.7385 51.3043 51.1574C47.3521 50.7801 47.1427 50.88 46.1543 53.6134C44.7437 57.5143 44.8624 60.4894 46.523 62.8604C47.7971 64.6794 47.7917 64.9078 46.4628 65.4177C45.6602 65.7257 44.6763 65.6219 44.2763 65.187C43.2768 64.1004 41.1174 57.4294 41.4216 56.3681C41.5576 55.8934 41.4297 54.2299 41.1374 52.6716L40.6059 49.8382L36.5954 53.9061C32.7385 57.8183 32.1023 59.3359 32.4795 63.7246C32.6419 65.6141 30.951 66.4944 29.6529 65.1963H29.6529ZM16.6166 45.1398C16.3759 42.6154 15.8569 41.5572 14.8594 41.5572C14.0808 41.5572 12.511 40.6809 11.3709 39.6098C9.01054 37.3924 8.73293 38.4713 10.5468 42.8124C11.6291 45.4028 14.9518 48.7224 16.4622 48.7224C16.735 48.7224 16.8046 47.1103 16.6166 45.1398ZM74.1896 39.5798C83.4669 39.2978 84.9129 38.4197 73.7595 38.133C72.5128 38.1009 71.3058 39.7917 70.1642 42.4529C68.6848 45.9019 68.6597 46.1784 69.9906 44.3693C70.8459 43.2066 73.0676 40.793 74.1896 39.5798Z" fill="black"/>
</svg>
