<svg width="90" height="90" viewBox="0 0 90 90" fill="none" xmlns="http://www.w3.org/2000/svg">
<path d="M53.1833 70.1823C50.5676 69.4242 50.3336 69.0167 49.7582 64.2174C49.4186 61.3843 48.9346 58.1964 48.6828 57.1334C48.2053 55.1176 48.0737 55.0794 16.4702 47.7851C8.951 46.0497 8.29736 45.7261 8.29736 43.7389C8.29736 41.2973 8.47422 41.2361 19.4825 39.8705C25.0846 39.1756 29.0471 37.9532 35.94 34.7936C45.6798 30.3291 52.4889 28.1939 57.0409 28.1769C59.49 28.1677 60.0251 27.7337 60.916 25.0342C62.1464 21.3062 64.8325 19.2097 68.3785 19.2097C70.2677 19.2097 73.9201 19.2552 74.6727 23.1243C75.1699 25.6798 79.0875 27.2798 79.9495 27.5744C81.909 28.244 82.0475 31.7488 80.1146 31.7488C79.3433 31.7488 77.8981 31.3132 76.9031 30.7806C74.7741 29.6412 73.5581 30.4178 75.0832 31.9429C76.5969 33.4567 76.3608 37.0066 74.4705 41.1532C70.915 48.953 64.6845 53.7338 56.5099 54.935L52.4082 55.5377L52.7141 60.4368C52.8824 63.1312 53.1347 65.4538 53.2749 65.598C53.4151 65.7422 55.0911 66.0789 56.9994 66.3461C63.0101 67.1878 63.4149 67.4969 61.0416 69.4328C58.7464 71.305 57.4753 71.4262 53.1833 70.1823Z" fill="black"/>
</svg>
