<svg width="90" height="91" viewBox="0 0 90 91" fill="none" xmlns="http://www.w3.org/2000/svg">
<path d="M44.6139 70.3966C43.8002 70.0541 43.4943 66.7585 43.4943 58.3335V46.7416L40.8518 48.1081C39.3985 48.8597 37.1256 49.4746 35.801 49.4746C33.4408 49.4746 33.4031 49.5632 33.9173 53.9047C34.6239 59.8708 36.6095 63.4153 39.8845 64.557C43.0424 65.6578 43.4143 67.7837 40.7029 69.2348C39.0348 70.1276 38.2866 69.7366 34.4709 65.9782C31.906 63.4519 29.9083 60.5806 29.5809 58.9495C29.2764 57.4329 28.3934 54.4654 27.6188 52.355L26.2103 48.5181L23.8806 51.0925C22.5992 52.5085 19.686 55.1283 17.4067 56.9143C12.8281 60.5021 11.5045 63.9477 13.5089 67.0611C15.0127 69.3968 14.4439 70.0746 10.9798 70.0746C8.33131 70.0746 8.32273 70.0575 8.88995 65.9191C9.20322 63.6337 9.45952 60.5764 9.45952 59.1253C9.45952 57.2337 10.3504 55.6982 12.6072 53.7002C14.4785 52.0435 16.1368 49.4954 16.6965 47.4166C17.9556 42.7409 18.1092 42.6572 15.7306 46.7832C12.5827 52.2435 12.6072 53.7002 12.6108 47.7582C12.6136 43.0495 13.7293 37.7461 18.2756 33.3528C21.6046 30.136 23.9832 28.8245 30.0595 26.8558C34.2467 25.4991 38.4201 24.3907 39.3338 24.3927C40.2475 24.3947 42.9937 23.3925 45.4365 22.1655C49.1474 20.3016 50.4506 20.0633 53.3594 20.7169C55.2742 21.1471 57.1964 21.9822 57.4669 21.7116C60.2195 23.6448 64.6507 25.5695 68.5726 26.3341C69.3115 26.4603 70.8229 26.0617 71.9313 25.4484C73.1364 24.7816 74.567 23.9064 73.9297 25.2827C73.7219 25.7314 74.5469 26.444 75.2348 26.0009C76.9767 24.8791 76.6135 25.527 76.2128 27.1939C75.7317 29.1955 78.593 36.1397 81.1864 39.2646C82.6789 41.0629 81.4982 43.205 79.0145 43.205C77.8302 43.205 75.0597 42.4082 72.858 41.4342C69.6088 39.997 67.7303 39.7685 62.8845 40.221C57.3825 40.7347 56.7743 41.0049 55.1304 43.6649C54.1492 45.2524 53.3465 46.8048 53.3465 47.1147C53.3465 47.4246 54.8119 49.3002 56.603 51.2827C59.8528 54.8798 59.8582 54.8996 59.2431 60.9135C58.5524 67.666 57.6697 69.1992 55.337 67.698C53.5623 66.5558 53.5431 64.6061 55.2647 60.3492C56.4628 57.3868 56.4273 57.2944 52.9317 54.2675C48.7467 50.6437 48.5397 50.8838 47.5031 60.5638C46.8918 66.2719 46.9628 66.6298 48.8014 67.1106C51.443 67.8014 50.8193 70.4742 47.9649 70.6951C46.7376 70.7901 45.2296 70.6558 44.6139 70.3966Z" fill="black"/>
</svg>
