<svg width="91" height="91" viewBox="0 0 91 91" fill="none" xmlns="http://www.w3.org/2000/svg">
<path d="M18.6952 65.3376C18.6952 64.3226 19.2494 63.4922 19.9268 63.4922C20.6041 63.4922 21.4102 62.2327 21.7181 60.6933C22.5942 56.3125 22.3747 50.0574 21.3448 50.0574C20.8315 50.0574 19.5561 49.2603 18.5103 48.2861C17.2893 47.1486 15.9001 46.6927 14.6277 47.012C13.1348 47.3867 12.1777 46.851 10.7448 44.8386C8.39787 41.5426 8.37065 39.5167 10.6344 36.6227C11.5977 35.3911 12.3948 33.4364 12.4058 32.2787C12.4169 31.0986 13.7634 28.8362 15.4709 27.1287C19.3582 23.2415 23.8494 23.0343 30.5559 26.4327C36.5829 29.4868 44.9252 30.5302 54.294 29.4018C60.5236 28.6515 62.1132 28.7364 64.4486 29.9441C68.1714 31.8692 70.5311 37.4852 71.7823 47.3974C72.4447 52.6449 73.2162 55.5397 74.0362 55.8544C76.027 56.6183 76.9126 55.5438 76.9126 52.3645C76.9126 49.1414 80.0663 44.3127 81.566 45.2395C82.099 45.569 82.3003 47.5244 82.0394 49.839C81.6988 52.8608 80.9468 54.3879 79.0252 55.9596C73.8999 60.1519 70.3533 57.7681 69.4562 49.5282C69.1393 46.6173 68.3699 42.6235 67.7463 40.6531C66.618 37.0876 66.6114 37.1067 66.3492 44.6666C66.1399 50.6992 66.3704 52.4709 67.4687 53.274C68.3928 53.9497 68.8477 55.7388 68.8395 58.6649C68.8197 65.7819 68.194 67.0748 64.7697 67.0748C61.3761 67.0748 59.8661 65.4879 61.8672 64.0247C64.9756 61.7518 64.6962 59.1165 60.9115 55.0106L57.3013 51.094L57.3731 54.8301C57.4126 56.8849 56.9207 60.4806 56.2801 62.8205C55.1486 66.9529 55.0169 67.0748 51.6835 67.0748C48.8489 67.0748 48.2518 66.7632 48.2518 65.2835C48.2518 64.2754 48.8489 63.4922 49.6174 63.4922C52.0853 63.4922 52.9073 59.2208 51.6979 52.6814L50.5867 46.6733L47.404 49.1758C45.6535 50.5522 42.9114 51.9502 41.3105 52.2825C39.7095 52.6148 38.3742 53.3585 38.3431 53.9351C38.312 54.5117 38.2112 57.6033 38.1191 60.8053L37.9518 66.627L34.5931 66.905C31.7087 67.1437 31.2344 66.9223 31.2344 65.3376C31.2344 64.249 31.8176 63.4922 32.6566 63.4922C33.8286 63.4922 33.9681 62.8371 33.4497 59.7685C33.1037 57.7205 32.2923 54.7984 31.6466 53.275C30.3304 50.1698 30.5495 49.8349 27.3064 59.9096C25.1825 66.5077 25.0868 66.6319 21.9197 66.905C19.1709 67.142 18.6952 66.911 18.6952 65.3376Z" fill="black"/>
</svg>
