<svg width="90" height="91" viewBox="0 0 90 91" fill="none" xmlns="http://www.w3.org/2000/svg">
<path d="M53.7483 76.4712C49.2449 75.2597 45.9119 72.8818 45.9119 70.8806C45.9119 70.2181 45.3073 69.676 44.5684 69.676C43.8295 69.676 43.2249 70.4631 43.2249 71.4252C43.2249 73.8263 38.682 75.0398 27.551 75.612C17.1844 76.1449 13.8346 74.9959 10.2461 69.676C8.31525 66.8136 8.16026 65.7957 8.46241 57.9619C8.75129 50.4724 9.1626 48.6324 11.7003 43.4776C15.8076 35.1346 22.0296 29.7177 33.0641 24.8783C37.8934 22.7604 43.7846 19.4941 46.1556 17.6199C53.5367 11.7855 59.8278 12.1455 67.0649 18.8164C69.7735 21.3131 71.4064 22.195 72.6119 21.8124C73.5516 21.5141 74.9571 21.5145 75.7353 21.8131C77.8184 22.6125 78.5751 27.2541 77.0114 29.6406C75.8707 31.3816 75.8731 31.8749 77.031 33.6187C78.4494 35.755 78.6739 42.009 77.6784 51.6588C77.1243 57.0299 77.2294 57.507 79.4133 59.532C82.207 62.1225 82.422 64.8599 79.8946 65.6621C76.2235 66.8273 68.988 65.1246 66.3346 62.4712C64.7078 60.8444 63.825 60.4167 63.825 61.2554C63.825 61.967 62.9014 62.97 61.7725 63.4843C60.0976 64.2475 59.7849 64.9749 60.0727 67.4395C60.2666 69.1005 61.1902 71.1518 62.1251 71.9979C64.4638 74.1144 64.2535 75.827 61.5275 76.8634C58.8033 77.8991 59.1139 77.9148 53.7483 76.4712L53.7483 76.4712ZM15.2982 69.953C14.7963 68.1349 14.533 63.7269 14.7132 60.1575C15.0917 52.6634 17.016 49.755 22.7281 48.0436C25.5833 47.1881 26.5094 47.2949 29.0513 48.7728C32.2364 50.6246 33.5091 53.4858 35.1988 62.5933L36.128 67.602L40.1895 67.6634C42.9195 67.7046 44.1227 67.384 43.8598 66.6852C42.9768 64.3375 39.7124 54.4076 37.4216 47.1011C34.1694 36.7282 34.0332 29.3491 37.0347 26.1477C39.105 23.9396 38.8994 23.9785 32.0729 27.0869C23.306 31.0788 19.9022 33.6209 16.2863 38.8764C12.0618 45.0165 10.0858 51.5563 10.0858 59.3981C10.0858 66.4845 11.4455 70.6052 14.3401 72.2912C15.2022 72.7933 15.9758 73.2164 16.0593 73.2313C16.1427 73.2463 15.8002 71.771 15.2982 69.953ZM61.8258 56.2412C60.519 54.1487 59.3467 53.9059 59.3467 55.7277C59.3467 56.4305 60.052 57.1898 60.9141 57.4151C61.7761 57.6404 62.5856 57.8714 62.7129 57.9286C62.8403 57.9857 62.441 57.2264 61.8258 56.2412ZM62.3874 53.402C61.9397 52.6777 62.2691 52.5401 63.4541 52.9564C65.0578 53.5198 65.0673 53.4799 63.601 52.3381C61.221 50.4849 61.6819 49.9716 65.7259 49.9716C68.9064 49.9716 69.2636 50.1578 68.3032 51.3151C67.3921 52.4129 67.447 52.6586 68.6036 52.6586C69.3821 52.6586 71.7054 51.0544 73.7665 49.0937C77.4581 45.582 77.5065 45.4563 77.012 40.6648C76.7359 37.9896 75.8378 34.775 75.0163 33.5213C74.1626 32.2183 73.8213 30.7452 74.2197 30.0827C74.7774 29.1553 74.6454 29.1432 73.559 30.022C71.6612 31.5573 70.0945 29.8117 70.0945 26.1619C70.0945 23.9879 69.2713 22.5667 66.629 20.1796C60.5694 14.7051 54.1256 13.7928 48.7176 17.6436C46.3278 19.3453 46.3069 19.4505 46.8932 26.8313C47.2194 30.9378 48.1068 35.7084 48.8651 37.4325L50.244 40.5673L50.4307 37.4325C50.5665 35.151 50.8152 35.8193 51.3443 39.888C52.4231 48.1843 54.7329 51.1085 62.7582 54.3385C62.9104 54.3997 62.7436 53.9783 62.3874 53.402ZM57.7345 46.2099C56.1827 44.6581 56.4126 42.412 58.2976 40.7061C60.4119 38.7927 60.8682 38.8374 62.0658 41.0752C62.8365 42.5153 62.7395 43.4105 61.6288 45.1056C60.0239 47.5549 59.2882 47.7636 57.7345 46.2099ZM68.5186 44.6099C66.1275 40.7811 67.6485 37.4354 70.9716 39.2139C72.9744 40.2857 73.3788 43.6421 71.7067 45.3142C70.2458 46.7751 69.8109 46.679 68.5186 44.6099ZM51.5878 32.4493C50.1656 28.7432 56.0046 23.387 58.8723 25.767C59.6258 26.3923 60.2423 27.8828 60.2423 29.0792C60.2423 30.7146 59.4717 31.5763 57.1363 32.5521C53.1911 34.2005 52.2531 34.1831 51.5878 32.4493Z" fill="black"/>
</svg>
