<svg width="91" height="91" viewBox="0 0 91 91" fill="none" xmlns="http://www.w3.org/2000/svg">
<path d="M33.1388 65.2111C33.6784 63.5307 41.6871 59.4261 45.6686 58.7894C47.8936 58.4336 51.9405 58.8891 56.7919 60.0413C66.995 62.4645 70.09 62.3898 72.8257 59.654C75.9648 56.5149 75.5669 55.4475 71.8383 57.0054C67.4643 58.833 48.6024 57.6783 48.6024 55.5829C48.6024 54.6896 49.8029 54.0846 52.185 53.7774C55.6336 53.3327 55.6911 53.2723 53.7219 52.1622C52.5968 51.5279 49.7851 51.1312 47.4737 51.2807C44.0854 51.4998 43.0659 51.9663 42.2113 53.6886C41.6283 54.8636 40.6111 56.1673 39.9508 56.5858C38.382 57.5801 31.9313 57.5661 30.3507 56.5649C28.1934 55.1985 30.2095 53.7916 34.3248 53.7916C36.5125 53.7916 38.3024 53.3885 38.3024 52.8959C38.3024 52.4033 37.7522 52.0003 37.0797 52.0003C36.4072 52.0003 34.7861 51.1579 33.4772 50.1283C31.4452 48.5299 30.688 48.399 28.2967 49.2326C23.2632 50.9873 12.3285 49.8252 12.3285 47.5356C12.3285 45.6883 18.466 38.0762 20.9584 36.8322C22.6541 35.9859 24.1849 34.2778 24.8227 32.5204C25.9707 29.357 28.7407 27.3379 30.4682 28.4056C29.5688 29.1032 31.4334 29.8489 31.3698 30.8953C31.7606 32.0677 38.6029 30.6733 45.9155 27.3387C52.7721 24.2121 59.5199 24.0157 64.9232 26.7857C74.3154 31.6006 79.1537 38.8944 78.2405 46.8621C77.9449 49.4418 77.7134 53.0479 77.7261 54.8757C77.7427 57.2634 77.0504 58.981 75.2671 60.9767C71.8324 64.8205 67.547 65.2462 57.0645 62.7852C47.9128 60.6367 43.6742 61.0309 37.5795 64.5974C34.1628 66.5968 32.6255 66.8092 33.1388 65.2111Z" fill="black"/>
</svg>
