<svg width="90" height="91" viewBox="0 0 90 91" fill="none" xmlns="http://www.w3.org/2000/svg">
<path d="M29.358 63.6869C28.6658 62.3322 27.8193 59.8132 27.4768 58.0891C27.1344 56.3649 26.6715 54.2988 26.4481 53.4977C26.2192 52.6768 23.6102 51.1738 20.4694 50.0536C13.9292 47.721 8.17932 44.2184 8.17932 42.5671C8.17932 40.1144 20.2803 35.6889 30.5744 34.3769C34.2861 33.9038 34.7873 33.5246 36.844 29.6338C38.0734 27.3078 39.7273 25.284 40.5192 25.1363C41.725 24.9114 41.8914 25.5717 41.543 29.1979C41.2555 32.1902 41.5024 33.8255 42.3422 34.4906C43.5243 35.4267 53.8316 38.1724 58.3358 38.7511C59.5674 38.9093 61.7096 39.4962 63.0963 40.0552C66.3973 41.386 65.7563 41.6139 71.2135 37.1689C75.6009 33.5953 80.3144 31.4039 81.3614 32.4508C81.594 32.6834 80.1395 35.0522 78.1293 37.7148C73.5755 43.7463 72.9009 46.8463 74.8473 52.7971C77.3915 60.5754 74.8179 59.6262 69.4631 50.8112C66.4866 45.9115 64.2406 44.422 62.4812 46.1813C62.134 46.5286 60.2683 46.8524 58.3354 46.9009C54.9953 46.9847 52.1693 48.9511 50.8261 52.1262C50.5317 52.8222 49.9784 52.6613 49.1429 51.6365C48.007 50.2434 47.5203 50.2239 43.5704 51.4126C41.19 52.129 37.6943 52.7151 35.8022 52.7151H32.3619V59.4325C32.3619 66.5189 31.4588 67.798 29.358 63.6869Z" fill="black"/>
</svg>
