<svg width="90" height="90" viewBox="0 0 90 90" fill="none" xmlns="http://www.w3.org/2000/svg">
<path d="M21.5457 83.7559C21.5457 83.1313 22.4877 81.2169 23.6389 79.5015C26.1005 75.8337 29.82 65.1542 31.2532 57.6393C31.81 54.7195 33.306 50.6891 34.5777 48.6828C36.7535 45.2502 36.6005 45.335 31.9858 50.12C29.2885 52.9168 26.7877 56.1411 26.4285 57.2852C26.0693 58.4293 24.0389 62.0319 21.9164 65.2911C19.794 68.5503 17.791 72.2784 17.4654 73.5759C16.8427 76.057 15.2762 76.8369 15.2762 74.6659C15.2762 73.9679 17.9589 68.0857 21.2379 61.5943C26.8065 50.57 30.2212 45.7908 34.5399 42.9768C35.6103 42.2794 35.7595 41.9754 34.9127 42.2171C34.1365 42.4386 30.8418 42.9046 27.5913 43.2527L21.6812 43.8856L19.9434 40.4298C16.2639 33.1129 15.9923 31.059 17.9513 25.365C18.943 22.4825 19.7544 19.2033 19.7544 18.078C19.7544 16.9527 20.1575 15.7829 20.6501 15.4784C22.0147 14.635 21.7356 20.3358 20.1509 25.672C18.8166 30.1649 18.8427 30.5924 20.7518 35.5158L22.7476 40.6627L27.0593 39.5442C29.4307 38.9291 32.8885 38.6554 34.7432 38.9361C40.1157 39.7492 37.167 37.806 30.5023 36.1413C27.3003 35.3415 24.1767 34.0163 23.561 33.1964C22.9095 32.3289 22.445 29.0623 22.4501 25.3833C22.4582 19.5155 22.6835 18.7783 25.5849 15.1284C27.73 12.4299 28.711 10.2683 28.711 8.24C28.711 6.61426 29.114 5.03502 29.6066 4.73057C30.1441 4.39842 30.5023 5.54627 30.5023 7.60054C30.5023 9.96085 29.592 12.4111 27.5712 15.4904C24.8752 19.5985 24.6654 20.4321 24.9555 25.886L25.2709 31.8153L29.7912 32.3507C32.2773 32.6451 35.2681 33.5129 36.4373 34.279C38.4389 35.5905 38.5631 35.5634 38.5631 33.8154C38.5631 31.4963 40.9979 26.6741 42.1688 26.6741C43.4354 26.6741 43.1881 28.6439 41.6694 30.6518C39.7309 33.2148 39.9348 33.3914 44.8327 33.3914C49.7306 33.3914 49.9346 33.2148 47.996 30.6518C46.4773 28.6439 46.2301 26.6741 47.4967 26.6741C48.6675 26.6741 51.1023 31.4963 51.1023 33.8154C51.1023 35.5634 51.2265 35.5905 53.2281 34.279C54.3973 33.5129 57.3881 32.6451 59.8742 32.3507L64.3945 31.8153L64.7045 25.886C64.9902 20.4228 64.7846 19.6143 62.0889 15.6018C60.0148 12.5146 59.1631 10.218 59.1631 7.712C59.1631 5.58342 59.5195 4.39726 60.0588 4.73057C60.5514 5.03502 60.9544 6.61426 60.9544 8.24C60.9544 10.2683 61.9354 12.4299 64.0805 15.1284C66.9819 18.7783 67.2072 19.5155 67.2153 25.3833C67.2207 29.0623 66.7559 32.3289 66.1045 33.1964C65.4887 34.0163 62.3651 35.3415 59.1631 36.1413C52.4984 37.806 49.5497 39.7492 54.9223 38.9361C56.777 38.6554 60.2347 38.9291 62.6061 39.5442L66.9179 40.6627L68.9136 35.5158C70.8227 30.5924 70.8488 30.1649 69.5145 25.672C67.9298 20.3358 67.6507 14.635 69.0153 15.4784C69.5079 15.7829 69.911 16.9527 69.911 18.078C69.911 19.2033 70.7224 22.4825 71.7141 25.365C73.6731 31.059 73.4015 33.1129 69.722 40.4298L67.9842 43.8856L62.0741 43.2527C58.8236 42.9046 55.5289 42.4386 54.7527 42.2171C53.906 41.9754 54.0551 42.2794 55.1255 42.9768C59.4442 45.7908 62.8589 50.57 68.4275 61.5943C74.3011 73.2223 75.2593 75.9349 73.4936 75.9349C73.001 75.9349 72.5979 75.3998 72.5979 74.7458C72.5979 74.0918 70.3812 69.8972 67.6718 65.4245C64.9625 60.9518 62.7458 56.8616 62.7458 56.335C62.7458 55.8085 60.5024 53.0505 57.7606 50.2063C53.1195 45.3918 52.9351 45.2867 55.0877 48.6828C56.3594 50.6891 57.8426 54.7195 58.3838 57.6393C59.7385 64.9482 63.5162 75.7495 66.0301 79.5015C68.2221 82.7732 68.707 84.8914 67.264 84.8914C65.0145 84.8914 57.3473 68.5417 55.2936 59.3654C55.0731 58.3801 54.8459 59.5195 54.7888 61.8973C54.705 65.385 54.1878 66.7177 52.1127 68.7927C47.5114 73.394 42.154 73.394 37.5527 68.7927C35.4571 66.6971 34.9696 65.4196 34.9216 61.8973L34.8626 57.5741L33.6535 62.0523C31.8397 68.7703 29.141 75.2092 25.9983 80.3167C23.2678 84.7542 21.5457 86.0844 21.5457 83.7559Z" fill="black"/>
</svg>
