<svg width="91" height="90" viewBox="0 0 91 90" fill="none" xmlns="http://www.w3.org/2000/svg">
<path d="M58.9697 85.1313C57.2529 84.6034 56.0588 83.6414 56.0588 82.7862C56.0588 81.9888 55.152 80.4898 54.0436 79.4552L52.0284 77.5741L49.5653 79.7039C48.2107 80.8753 47.1023 82.4339 47.1023 83.1673C47.1023 85.415 45.4779 85.6511 44.8128 83.5001C44.4679 82.3845 42.9561 80.4316 41.4533 79.1601L38.721 76.8484L36.1942 79.7262C34.8045 81.309 33.6675 83.0042 33.6675 83.4933C33.6675 84.5024 28.5151 85.7449 27.3407 85.019C26.9177 84.7577 26.3174 83.1885 26.0067 81.5321C25.3941 78.2667 27.7648 71.6593 30.2996 69.5675C31.5486 68.5367 31.3739 67.8678 28.6927 63.4152C25.6629 58.3836 24.5029 53.7013 24.3475 45.8752C24.2851 42.7291 23.9145 41.6285 22.9197 41.6346C20.7296 41.6479 19.5023 42.8125 17.3107 46.9568C14.8157 51.675 10.8444 54.9766 9.40075 53.5329C7.84787 51.98 9.39395 41.1575 11.8207 36.5935C15.8319 29.0494 21.0286 23.041 24.8727 21.503C28.2908 20.1353 28.7237 20.1452 31.7896 21.6621C34.2288 22.869 35.6589 23.0697 37.4154 22.452C39.9998 21.5431 40.8327 19.0812 40.8327 12.3519C40.8327 9.22997 41.3293 7.93047 43.1763 6.21869C45.0045 4.52443 45.8864 4.24286 47.1862 4.93851C49.2027 6.01766 50.6849 8.61119 50.6849 11.0602C50.6849 12.0535 51.1215 14.9021 51.6551 17.3903C52.446 21.0781 53.0376 22.0177 54.8555 22.474C56.0844 22.7824 57.5387 22.5806 58.0948 22.0245C58.6499 21.4695 60.7214 21.0153 62.6982 21.0153C65.8826 21.0153 66.8111 21.5638 70.8414 25.8258C77.1989 32.5487 80.8221 39.7441 81.6053 47.2017C82.1303 52.2013 82.0029 53.3265 80.8624 53.7641C78.5444 54.6536 75.9949 52.5831 73.3562 47.6681C69.6093 40.6892 68.0853 40.9735 67.3145 48.795C66.5661 56.3908 64.8936 61.4795 61.8218 65.5067L59.5591 68.4733L61.9508 72.5544C63.8977 75.8765 64.2573 77.3913 63.8845 80.699C63.3225 85.6851 62.6736 86.2703 58.9697 85.1313Z" fill="black"/>
</svg>
