<svg width="90" height="90" viewBox="0 0 90 90" fill="none" xmlns="http://www.w3.org/2000/svg">
<path d="M38.2569 80.6018C37.9768 79.4222 38.0668 74.3173 38.457 69.2576C38.8596 64.0364 38.8235 59.7153 38.3735 59.2653C37.9134 58.8052 35.9696 60.0351 33.7426 62.1952C20.9272 74.6258 16.8239 77.9604 15.7119 76.8483C14.7565 75.8929 18.5116 71.7335 23.1775 68.579C25.742 66.8453 28.0405 65.1026 28.2854 64.7065C28.5302 64.3103 26.6335 64.1596 24.0705 64.3715C17.4261 64.9209 8.61027 61.3837 8.77887 58.2361C9.22083 49.9854 12.2008 43.9646 13.9536 47.7809C14.2364 48.3967 14.2495 48.0146 13.9827 46.9319C13.6059 45.4028 14.0977 44.6528 16.1856 43.5732C19.5427 41.8371 19.6376 41.8414 20.1365 43.7505C20.4509 44.9535 20.5703 44.8588 20.65 43.3433C20.7305 41.8143 21.4836 41.2317 23.9868 40.7621C26.1713 40.3523 27.4431 40.5173 27.9088 41.2707C28.4547 42.1541 28.6773 42.1477 28.9798 41.2404C29.2775 40.3472 29.9915 40.3146 32.222 41.0921C34.8468 42.0071 34.5343 41.4732 28.4291 34.6111C22.0688 27.4623 18.067 21.2877 18.067 18.6228C18.067 17.054 20.931 14.4179 22.6356 14.4179C23.3466 14.4179 25.4326 15.6578 27.2711 17.1732L30.6137 19.9285L29.7143 17.5627C27.7479 12.3907 29.6003 7.25269 33.4314 7.25269C36.8276 7.25269 42.2405 17.2354 47.5151 33.2266C49.8662 40.3548 50.7621 41.986 53.0368 43.2804C55.7032 44.7978 59.2074 50.8747 59.2473 54.0505C59.2604 55.0959 59.9724 55.6179 61.3853 55.6179C62.5504 55.6179 64.5647 56.4525 65.8616 57.4727L68.2196 59.3274L69.2117 56.8009C69.7573 55.4114 70.9287 52.2076 71.8148 49.6814C72.7008 47.1552 74.0528 43.9309 74.8192 42.5162C77.0798 38.3433 76.5654 42.3034 73.9635 49.104C70.1317 59.1194 69.1799 61.8875 69.5681 61.8875C69.7713 61.8875 72.2171 59.0662 75.0032 55.6179C79.6365 49.8833 81.6583 48.1932 81.6583 50.0547C81.6583 50.4431 79.24 53.4852 76.2844 56.8149C70.5306 63.2966 70.5445 63.261 71.7519 68.4641C72.8085 73.0174 71.4324 76.9484 68.5263 77.6778C63.4329 78.9562 53.893 71.6159 53.893 66.4184C53.893 64.2874 53.5859 63.9268 52.1017 64.3149C51.0938 64.5785 50.3104 65.5366 50.3104 66.5059C50.3104 67.4533 51.1165 69.8085 52.1017 71.7396C53.087 73.6708 53.8796 76.3753 53.8632 77.7496L53.8335 80.2483L52.1005 78.1692C51.1474 77.0257 50.0965 74.6449 49.7652 72.8786C48.8501 68.0012 47.115 65.292 44.0924 64.021C40.9721 62.709 41.2453 61.8068 41.0224 74.1579C40.9012 80.8783 39.241 84.7466 38.2569 80.6018ZM68.2235 67.8084C68.2235 64.8656 65.3182 61.4359 63.4369 62.1578C60.226 63.39 62.8644 69.9483 66.571 69.9483C67.7161 69.9483 68.2235 69.2913 68.2235 67.8084ZM43.1719 35.9634C42.6593 35.0057 41.7972 33.9484 41.2562 33.614C40.7151 33.2796 40.9652 34.0633 41.8118 35.3555C43.6046 38.0915 44.5329 38.5065 43.1719 35.9634ZM37.7049 28.342C36.1293 26.148 33.833 23.4275 32.602 22.2963C31.3709 21.1651 32.5151 22.9602 35.1447 26.2853C40.5876 33.1681 41.9659 34.2753 37.7049 28.342Z" fill="black"/>
</svg>
