<svg width="91" height="90" viewBox="0 0 91 90" fill="none" xmlns="http://www.w3.org/2000/svg">
<path d="M30.9482 59.8417C30.1972 58.7695 29.1241 55.8475 28.5635 53.3482C27.5669 48.9056 27.429 48.7591 22.3868 46.7889C19.5502 45.6805 16.6708 44.7722 15.9881 44.7703C15.3054 44.7685 13.4369 43.9683 11.8359 42.9922C7.90616 40.5962 7.72836 36.482 11.4709 34.5466C20.3006 29.9806 23.1156 29.475 36.2669 30.0929C47.9627 30.6424 49.0884 30.5516 52.5638 28.7786C56.0892 26.9801 58.1953 27.3586 56.8424 29.5476C55.9074 31.0605 70.8678 30.617 72.9115 29.0713C75.565 27.0643 76.7276 27.4545 76.3318 30.2193C76.0607 32.114 76.7099 33.4058 79.1455 35.8172C80.8869 37.5413 82.3245 39.2542 82.3401 39.6237C82.3899 40.8003 76.6433 40.3347 73.9814 38.9464C72.5704 38.2106 71.0147 37.6085 70.5243 37.6085C70.034 37.6085 67.407 39.6427 64.6867 42.1289C58.7886 47.5194 54.2349 49.9868 48.8134 50.7299L44.809 51.2788L46.9772 52.9843C48.1697 53.9223 50.3734 55.1178 51.8743 55.6411C55.1107 56.7693 55.3635 57.7958 52.5881 58.5396C47.2031 59.9827 44.7599 59.2139 39.7874 54.511C34.2477 49.2718 33.385 49.7206 34.291 57.3704C34.877 62.3184 33.4314 63.387 30.9482 59.8417Z" fill="black"/>
</svg>
