<svg width="90" height="90" viewBox="0 0 90 90" fill="none" xmlns="http://www.w3.org/2000/svg">
<path d="M23.6542 82.1509C23.8591 80.708 24.6399 80.0552 26.4034 79.8523L28.8665 79.5689V71.5445V63.52L21.1353 50.1306C13.7536 37.3465 13.3253 36.3049 11.662 27.0906C10.7039 21.7828 9.54794 17.0572 9.09322 16.5892C7.98696 15.4507 8.0366 12.514 9.16211 12.514C9.65472 12.514 10.0578 10.9018 10.0578 8.93136C10.0578 4.70403 11.4378 4.29001 14.536 7.58788C15.693 8.8194 17.2746 9.8381 18.0508 9.85167C18.827 9.86523 20.4697 11.2447 21.7012 12.9171C22.9328 14.5896 25.2503 16.5872 26.8512 17.3562C28.5569 18.1756 29.7621 19.4295 29.7621 20.3846C29.7621 21.2812 31.072 23.2611 32.673 24.7845C35.0544 27.0505 39.0983 28.6511 54.9041 33.5841L74.2244 39.6138L77.9672 50.9543C80.0257 57.1916 81.7099 62.6511 81.7099 63.0866C81.7099 63.5221 80.6169 62.9013 79.281 61.707L76.852 59.5357L79.281 62.8346C81.3724 65.6751 81.7099 66.9976 81.7099 72.3509C81.7099 75.7705 81.458 79.8278 81.1502 81.3672C80.6388 83.9242 80.2903 84.1661 77.1197 84.1661C74.3747 84.1661 73.6491 83.8291 73.6491 82.554C73.6491 81.6673 74.0219 80.5589 74.4776 80.0909C74.9333 79.6229 75.4132 77.1293 75.5439 74.5494L75.7817 69.8588L67.3263 63.4986L58.8708 57.1385L54.0923 57.6821C51.4641 57.9812 46.3253 58.6703 42.6727 59.2135L36.0317 60.2013L36.0266 68.825C36.0239 73.5681 35.6019 78.9602 35.0889 80.8074L34.1562 84.1661H28.762C23.6805 84.1661 23.3845 84.0494 23.6541 82.1509H23.6542ZM65.5882 82.3467C65.5882 81.346 66.1928 80.2953 66.9317 80.0118C67.8246 79.6691 68.2752 78.2606 68.2752 75.8115C68.2752 72.5376 67.701 71.5356 63.1251 66.8246C57.0528 60.5728 58.5729 60.7463 67.3375 67.3052C74.1975 72.4389 74.4462 73.0421 72.6471 80.1869C71.7088 83.9133 71.4527 84.1661 68.6167 84.1661C66.1697 84.1661 65.5882 83.8168 65.5882 82.3467Z" fill="black"/>
</svg>
