<svg width="91" height="90" viewBox="0 0 91 90" fill="none" xmlns="http://www.w3.org/2000/svg">
<path d="M34.606 76.6312C34.606 75.9214 35.009 75.0915 35.5016 74.787C35.9942 74.4826 36.3973 73.2967 36.3973 72.1517C36.3973 70.8231 37.0454 69.9004 38.1886 69.6014C39.1738 69.3438 40.0019 69.3975 40.0288 69.7209C40.7141 77.9605 40.7257 77.9218 37.5754 77.9218C35.5871 77.9218 34.606 77.4954 34.606 76.6312ZM70.845 76.9697C69.9699 75.5538 72.9747 72.6779 74.8239 73.1614C77.3291 73.8166 76.2006 77.9218 73.5153 77.9218C72.3703 77.9218 71.1686 77.4934 70.845 76.9697ZM73.2712 69.7087C73.4683 68.3174 74.2625 67.5233 75.6537 67.3262C77.3903 67.0802 77.691 67.381 77.4451 69.1175C77.248 70.5088 76.4538 71.303 75.0626 71.5C73.326 71.746 73.0253 71.4452 73.2712 69.7087ZM36.3973 67.2397C36.3973 65.9579 36.9725 65.3827 38.2543 65.3827C39.536 65.3827 40.0183 65.865 39.8114 66.9398C39.3617 69.2745 36.3973 69.5349 36.3973 67.2397ZM74.0147 64.2453C74.0147 62.7986 74.7714 61.7428 76.3111 61.0413C78.541 60.0253 78.5993 60.0794 78.3263 62.9128C78.1106 65.1508 77.5756 65.8972 76.0299 66.1167C74.4185 66.3456 74.0147 65.9705 74.0147 64.2453ZM35.1542 63.0821C34.5381 61.4767 37.179 57.3922 38.8603 57.35C40.2179 57.3158 40.3268 60.3741 39.0527 62.7546C37.9342 64.8446 35.8962 65.0158 35.1542 63.0821ZM78.9916 58.9138C78.2247 57.819 77.5973 57.3723 77.5973 57.9211C77.5973 59.2722 73.0791 60.3271 71.9837 59.2317C70.9631 58.2112 74.5983 52.545 75.798 53.2864C76.2108 53.5416 76.6838 53.3817 76.849 52.9312C77.0143 52.4806 77.9555 51.9743 78.9408 51.806C81.5783 51.3555 81.1883 53.9646 78.4929 54.8018C76.3058 55.4811 76.311 55.4901 78.7169 55.1902C80.5961 54.956 81.1799 55.2611 81.1799 56.4771C81.1799 57.3537 81.4245 58.7085 81.7235 59.4877C82.5361 61.6051 80.5903 61.1964 78.9916 58.9138ZM34.3724 58.581C34.0083 58.2169 33.7078 57.2808 33.7048 56.5008C33.7018 55.7208 33.0818 53.8986 32.3271 52.4513C30.4611 48.873 31.2745 45.9322 36.0657 38.9348C38.6323 35.1865 40.1759 31.8898 40.3644 29.7541C40.5906 27.1924 41.087 26.3571 42.5112 26.1418C44.1753 25.8903 44.3154 26.2092 43.8889 29.2766C43.5313 31.8484 43.6502 32.3597 44.3703 31.3479C44.8961 30.609 45.3325 29.2991 45.3401 28.437C45.3564 26.5712 47.8892 26.3282 48.5792 28.1263C48.8444 28.8174 48.1826 31.1055 47.1085 33.2109L45.1556 37.0389L47.1895 42.0304C48.3081 44.7757 50.0088 48.1534 50.9689 49.5364C53.0459 52.5285 52.875 52.8398 49.5099 52.1934C47.4931 51.8061 46.4952 50.728 44.8164 47.1225C43.1179 43.4747 42.6826 43.0096 42.6756 44.8354C42.6708 46.0959 43.2586 47.9096 43.9818 48.8658C46.4316 52.1047 45.4856 52.6003 40.6516 50.6102C39.3998 50.0949 39.0842 50.425 39.0842 52.25C39.0842 54.7475 35.4381 59.6467 34.3724 58.581ZM35.9084 51.3449C36.7985 47.7982 40.9172 41.1201 41.8564 41.7006C42.819 42.2955 42.8154 40.559 41.8489 38.0853C41.1681 36.3428 41.1405 36.3446 40.152 38.1914C39.5994 39.224 39.3846 40.3062 39.6746 40.5962C39.9646 40.8863 39.2959 42.6522 38.1885 44.5205C35.8378 48.4865 33.4155 54.9228 34.5337 54.2317C34.9569 53.9701 35.5755 52.6711 35.9084 51.3449H35.9084ZM69.997 55.5512C69.6996 55.0699 69.8804 53.1009 70.3989 51.1756C71.2602 47.9768 72.8964 46.6433 76.0299 46.5862C77.1079 46.5666 76.8055 48.1335 75.4743 49.4647C74.7993 50.1397 73.5798 51.9822 72.7643 53.5591C71.165 56.6518 70.8274 56.8948 69.997 55.5512ZM67.7451 51.821C67.7451 51.2585 66.536 49.6428 65.0582 48.2306C63.1211 46.3794 62.3712 44.8275 62.3712 42.6701C62.3712 39.8419 62.6868 39.5434 68.1156 37.2361C71.275 35.8933 74.5532 34.0287 75.4005 33.0924C77.345 30.9438 78.4929 31.6182 78.4929 34.9093C78.4929 37.5327 77.1591 38.3281 68.4169 40.9182C67.0622 41.3195 65.9538 41.9502 65.9538 42.3196C65.9538 42.6891 66.0015 44.0998 66.0598 45.4544L66.1657 47.9175L66.7398 45.2305C67.2401 42.8892 67.7876 42.4802 70.996 42.051C73.0211 41.78 75.6956 40.8915 76.9395 40.0765C79.1102 38.6542 79.2223 38.674 79.7304 40.5691C80.0216 41.6551 80.2653 42.7815 80.272 43.0722C80.2787 43.363 78.0618 44.1341 75.3454 44.7858C70.5869 45.9273 70.3864 46.0961 69.857 49.4071C69.3626 52.4987 67.7451 54.3475 67.7451 51.821ZM53.1504 49.2453C51.7843 48.1708 50.2862 45.5389 49.454 42.7519L48.0548 38.0653L55.4369 31.163C62.5826 24.4816 64.9572 23.2964 67.7095 25.0374C69.6285 26.2512 67.403 28.3877 59.2094 33.1976C53.6663 36.4515 52.5286 37.4935 52.9166 38.9609C53.1771 39.9462 53.3957 41.6901 53.4024 42.8364C53.4092 43.9826 54.6238 46.1296 56.1016 47.6074C57.5795 49.0853 58.7886 50.4649 58.7886 50.6733C58.7886 51.7443 55.1584 50.8248 53.1504 49.2453ZM76.7016 50.2955C76.7016 48.365 77.8553 46.574 79.0989 46.574C80.9808 46.574 80.2226 50.5125 78.269 50.8849C77.407 51.0492 76.7016 50.784 76.7016 50.2955ZM28.4772 47.7327C27.2385 45.4182 27.7122 43.9442 31.6115 37.9809C33.2524 35.4714 34.7994 32.0456 35.0493 30.3678C35.4606 27.6061 35.427 27.547 34.6943 29.7435C34.2492 31.0778 33.1208 33.2945 32.1866 34.6696C31.2525 36.0446 30.0127 38.278 29.4315 39.6327C28.1877 42.5318 26.8895 42.8005 26.1027 40.3217C25.7314 39.1516 26.4249 37.2456 28.1395 34.7238C30.6332 31.056 33.1625 25.1276 32.5114 24.4765C32.3402 24.3053 30.7042 27.192 28.8758 30.8913C27.0475 34.5907 25.2137 37.6175 24.8007 37.6175C22.8995 37.6175 23.2024 34.4014 25.5431 29.7344C28.7028 23.4341 29.6184 20.6001 28.4939 20.6001C28.0215 20.6001 27.3821 21.6077 27.073 22.8392C26.7639 24.0707 26.1156 25.0783 25.6324 25.0783C25.1492 25.0783 24.7538 26.2381 24.7538 27.6556C24.7538 29.0731 24.1669 30.72 23.4496 31.3153C21.8632 32.6319 19.8206 31.6568 21.0054 30.1486C21.4547 29.5767 22.0681 27.4966 22.3686 25.5262C22.669 23.5557 23.1775 20.6337 23.4985 19.0327C23.8804 17.1278 23.7339 16.1218 23.0745 16.1218C22.4985 16.1218 22.0668 17.634 22.0668 19.6516C22.0668 21.5929 21.6638 23.4304 21.1712 23.7349C20.6786 24.0393 20.2761 25.1715 20.2768 26.2508C20.2779 28.0785 19.9267 28.1913 15.1568 27.8951C10.6554 27.6155 10.2315 27.4338 11.6542 26.3935C12.7317 25.6055 13.0806 24.6045 12.6979 23.3986C12.3159 22.1951 12.7395 20.9709 13.9602 19.7502L15.7973 17.9131H13.9456C12.4451 17.9131 12.2075 17.531 12.6926 15.8979C13.5239 13.0993 15.6506 11.6436 18.9076 11.6436C22.4608 11.6436 34.8415 18.9466 37.6831 22.7187C40.689 26.7088 39.742 32.3831 35.1812 37.7114C33.3538 39.8463 31.3296 43.4075 30.6829 45.6252C29.5873 49.3828 29.4371 49.5263 28.4772 47.7327ZM17.7979 22.6153C18.5583 21.7532 19.4394 19.6372 19.7557 17.9131L20.3309 14.7783L18.9972 17.7029C18.2637 19.3115 17.1093 20.8402 16.4318 21.1002C15.1962 21.5743 14.6681 24.1827 15.8077 24.1827C16.1419 24.1827 17.0375 23.4774 17.7979 22.6153ZM57.4959 47.2704C56.729 46.1755 56.103 43.455 56.1048 41.2247C56.1079 37.2171 56.1667 37.1382 61.1333 34.4827C63.8973 33.0049 67.3208 30.3952 68.741 28.6836L71.3232 25.5714L73.3158 27.564L75.3084 29.5566L73.4044 31.4606C72.3572 32.5078 68.9425 34.6238 65.8162 36.1628C59.4754 39.2842 58.5865 41.0539 60.9647 45.8212C62.7187 49.3371 62.7261 49.2609 60.6307 49.2609C59.6734 49.2609 58.2627 48.3652 57.4959 47.2704ZM9.50556 36.6804C8.96611 35.6725 8.64965 33.5565 8.80231 31.9783C9.04809 29.4375 9.42753 29.0756 12.1147 28.8189C19.0255 28.1587 22.2996 31.1753 17.5843 33.8583C16.1151 34.6943 14.9104 35.839 14.9073 36.4021C14.9018 37.3803 12.954 38.5131 11.2773 38.5131C10.8423 38.5131 10.045 37.6884 9.50556 36.6804ZM16.2451 32.2436C15.9407 31.7509 15.2115 31.3541 14.6249 31.3616C13.9839 31.3699 14.0944 31.7219 14.9016 32.2436C16.6223 33.3555 16.9323 33.3555 16.2451 32.2436ZM47.1451 35.3427C47.1451 35.0767 47.92 33.3402 48.8671 31.4838C50.1468 28.9754 51.4579 27.8417 53.9716 27.0703C55.8319 26.4993 57.5647 26.2429 57.8223 26.5005C58.0799 26.758 56.0851 28.9442 53.3896 31.3587C48.8214 35.4505 47.1451 36.52 47.1451 35.3427Z" fill="black"/>
</svg>
