<?xml version="1.0" encoding="UTF-8" standalone="no"?>
<svg
   xmlns:dc="http://purl.org/dc/elements/1.1/"
   xmlns:cc="http://creativecommons.org/ns#"
   xmlns:rdf="http://www.w3.org/1999/02/22-rdf-syntax-ns#"
   xmlns:svg="http://www.w3.org/2000/svg"
   xmlns="http://www.w3.org/2000/svg"
   xmlns:sodipodi="http://sodipodi.sourceforge.net/DTD/sodipodi-0.dtd"
   xmlns:inkscape="http://www.inkscape.org/namespaces/inkscape"
   width="16"
   height="16"
   viewBox="0 0 16 16"
   fill="none"
   version="1.1"
   id="svg4"
   sodipodi:docname="export.svg"
   inkscape:version="0.92.5 (2060ec1f9f, 2020-04-08)">
  <metadata
     id="metadata10">
    <rdf:RDF>
      <cc:Work
         rdf:about="">
        <dc:format>image/svg+xml</dc:format>
        <dc:type
           rdf:resource="http://purl.org/dc/dcmitype/StillImage" />
      </cc:Work>
    </rdf:RDF>
  </metadata>
  <defs
     id="defs8" />
  <sodipodi:namedview
     pagecolor="#ffffff"
     bordercolor="#666666"
     borderopacity="1"
     objecttolerance="10"
     gridtolerance="10"
     guidetolerance="10"
     inkscape:pageopacity="0"
     inkscape:pageshadow="2"
     inkscape:window-width="1852"
     inkscape:window-height="866"
     id="namedview6"
     showgrid="false"
     inkscape:zoom="7.375"
     inkscape:cx="-45.198565"
     inkscape:cy="15.935949"
     inkscape:window-x="0"
     inkscape:window-y="0"
     inkscape:window-maximized="0"
     inkscape:current-layer="svg4" />
  <path
     d="m 8,16 c 4.4183,0 8,-3.5817 8,-8 C 16,3.58172 12.4183,0 8,0 3.58172,0 0,3.58172 0,8 c 0,4.4183 3.58172,8 8,8 z"
     id="path2"
     inkscape:connector-curvature="0"
     style="clip-rule:evenodd;fill:#3d70b2;fill-rule:evenodd"
     sodipodi:nodetypes="sssss" />
  <path
     inkscape:connector-curvature="0"
     style="fill:#ffffff;fill-rule:evenodd;stroke-width:0.04864322"
     d="m 8.0000019,15.627062 c -0.6017662,0 -1.0895109,-0.487746 -1.0895109,-1.089511 0,-0.601766 0.4877447,-1.089512 1.0895109,-1.089512 3.0088231,0 5.4480391,-2.439214 5.4480391,-5.448041 0,-3.0090191 -2.439216,-5.4480382 -5.4480391,-5.4480382 -3.0088279,0 -5.4480424,2.4390191 -5.4480424,5.4480382 0,0.6017665 -0.487745,1.0895109 -1.0895114,1.0895109 -0.601765,0 -1.0897054,-0.4877445 -1.0897054,-1.0895109 0,-4.2125986 3.4149022,-7.62725545 7.6272592,-7.62725545 4.2124031,0 7.6272551,3.41470375 7.6272551,7.62725545 0,4.212407 -3.414899,7.627259 -7.6272551,7.627259 z m 2.1982351,-8.8919823 0.03249,3.5648193 c -0.0023,1.450006 -2.1779011,1.453995 -2.1752747,0.0037 v -0.01442 C 8.0590503,9.840056 7.8027365,9.7327213 7.4831182,10.052491 l -1.4133299,1.413134 c -0.42506,0.42506 -1.1148059,0.423536 -1.5414065,-0.003 l 0.00912,0.0091 C 4.1097756,11.044018 4.1095838,10.355032 4.5341303,9.9303302 L 5.9474567,8.5170037 C 6.2664898,8.1979697 6.1610312,7.9408714 5.7103227,7.9443258 l -0.014429,1.821e-4 c -1.4500063,0.00273 -1.4461621,-2.1727963 0.00401,-2.1752751 l 3.5374801,0.010668 c 0.5255919,0.00169 0.9559392,0.4292417 0.9607042,0.9552095 z"
     id="path64" />
</svg>
