<svg width="17" height="16" viewBox="0 0 17 16" fill="none" xmlns="http://www.w3.org/2000/svg">
<path fill-rule="evenodd" clip-rule="evenodd" d="M0 15.285L0.706833 15.9924L4.18111 12.5208C5.33686 13.1694 6.61097 13.4936 8.00342 13.4936C11.3368 13.4936 14.0243 11.6354 16.066 7.9189C15.0962 6.20093 13.9807 4.89098 12.7195 3.98903L16.0037 0.70738L15.2969 0L11.8499 3.44427C10.6809 2.81051 9.39875 2.49363 8.00343 2.49363C4.67009 2.49363 2.01498 4.30205 0.0380873 7.9189C0.979457 9.68864 2.07462 11.037 3.32356 11.964L0 15.285ZM4.92098 11.7815C5.86519 12.2589 6.89122 12.4936 8.00343 12.4936C10.7981 12.4936 13.0791 11.011 14.9106 7.92592C14.0445 6.50863 13.0771 5.43955 12.0012 4.70679L10.4499 6.25689C10.7985 6.74702 11.0034 7.34639 11.0034 7.99363C11.0034 9.65049 9.66028 10.9936 8.00343 10.9936C7.35535 10.9936 6.75527 10.7881 6.26479 10.4387L4.92098 11.7815ZM5.55779 9.73153L4.03961 11.2485C2.97602 10.4936 2.02673 9.39036 1.18443 7.92575C2.95647 4.93258 5.2056 3.49363 8.00343 3.49363C9.1188 3.49363 10.1518 3.72238 11.1067 4.18695L9.74322 5.54934C9.25253 5.19945 8.65201 4.99363 8.00343 4.99363C6.34657 4.99363 5.00343 6.33678 5.00343 7.99363C5.00343 8.64139 5.20872 9.24119 5.55779 9.73153ZM6.9874 9.7167C7.28517 9.89266 7.6325 9.99363 8.00343 9.99363C9.108 9.99363 10.0034 9.0982 10.0034 7.99363C10.0034 7.62326 9.90275 7.27641 9.72728 6.97894L6.9874 9.7167ZM9.0207 6.2713L6.28031 9.00957C6.10438 8.71183 6.00343 8.36452 6.00343 7.99363C6.00343 6.88906 6.89886 5.99363 8.00343 5.99363C8.37487 5.99363 8.72266 6.09489 9.0207 6.2713Z" fill="#30588C"/>
</svg>
