<svg width="18" height="19" viewBox="0 0 18 19" fill="none" xmlns="http://www.w3.org/2000/svg">
<path fill-rule="evenodd" clip-rule="evenodd" d="M6 9.46558C6 11.1224 7.34315 12.4656 9 12.4656C10.6569 12.4656 12 11.1224 12 9.46558C12 7.80872 10.6569 6.46558 9 6.46558C7.34315 6.46558 6 7.80872 6 9.46558ZM11 9.46558C11 10.5701 10.1046 11.4656 9 11.4656C7.89543 11.4656 7 10.5701 7 9.46558C7 8.36101 7.89543 7.46558 9 7.46558C10.1046 7.46558 11 8.36101 11 9.46558Z" fill="#30588C"/>
<path fill-rule="evenodd" clip-rule="evenodd" d="M17.0409 9.43413C14.9992 5.81729 12.3116 4.00886 8.9783 4.00886C5.64497 4.00886 2.98985 5.81729 1.01296 9.43413C2.98985 13.1506 5.64497 15.0089 8.9783 15.0089C12.3116 15.0089 14.9992 13.1506 17.0409 9.43413ZM15.8855 9.44115C14.054 12.5262 11.773 14.0089 8.9783 14.0089C6.18447 14.0089 3.93434 12.5274 2.15931 9.44099C3.93135 6.44781 6.18047 5.00886 8.9783 5.00886C11.7769 5.00886 14.057 6.44905 15.8855 9.44115Z" fill="#30588C"/>
</svg>
