<?xml version="1.0" encoding="UTF-8" standalone="no"?>
<svg
   xmlns:dc="http://purl.org/dc/elements/1.1/"
   xmlns:cc="http://creativecommons.org/ns#"
   xmlns:rdf="http://www.w3.org/1999/02/22-rdf-syntax-ns#"
   xmlns:svg="http://www.w3.org/2000/svg"
   xmlns="http://www.w3.org/2000/svg"
   xmlns:sodipodi="http://sodipodi.sourceforge.net/DTD/sodipodi-0.dtd"
   xmlns:inkscape="http://www.inkscape.org/namespaces/inkscape"
   width="16"
   height="16"
   viewBox="0 0 16 16"
   fill="none"
   version="1.1"
   id="svg4"
   sodipodi:docname="import.svg"
   inkscape:version="0.92.5 (2060ec1f9f, 2020-04-08)">
  <metadata
     id="metadata10">
    <rdf:RDF>
      <cc:Work
         rdf:about="">
        <dc:format>image/svg+xml</dc:format>
        <dc:type
           rdf:resource="http://purl.org/dc/dcmitype/StillImage" />
        <dc:title></dc:title>
      </cc:Work>
    </rdf:RDF>
  </metadata>
  <defs
     id="defs8" />
  <sodipodi:namedview
     pagecolor="#ffffff"
     bordercolor="#666666"
     borderopacity="1"
     objecttolerance="10"
     gridtolerance="10"
     guidetolerance="10"
     inkscape:pageopacity="0"
     inkscape:pageshadow="2"
     inkscape:window-width="1852"
     inkscape:window-height="866"
     id="namedview6"
     showgrid="false"
     inkscape:zoom="7.375"
     inkscape:cx="-45.198565"
     inkscape:cy="15.935949"
     inkscape:window-x="0"
     inkscape:window-y="0"
     inkscape:window-maximized="0"
     inkscape:current-layer="svg4" />
  <path
     d="m 8,16 c 4.4183,0 8,-3.5817 8,-8 C 16,3.58172 12.4183,0 8,0 3.58172,0 0,3.58172 0,8 c 0,4.4183 3.58172,8 8,8 z"
     id="path2"
     inkscape:connector-curvature="0"
     style="clip-rule:evenodd;fill:#3d70b2;fill-rule:evenodd"
     sodipodi:nodetypes="sssss" />
  <path
     inkscape:connector-curvature="0"
     style="fill:#ffffff;fill-rule:evenodd;stroke-width:0.04864322"
     d="m 7.9999977,0.37293763 c 0.6017662,0 1.0895109,0.487746 1.0895109,1.08951097 0,0.601766 -0.4877447,1.089512 -1.0895109,1.089512 -3.0088231,0 -5.4480391,2.439214 -5.4480391,5.4480409 0,3.0090195 2.439216,5.4480385 5.4480391,5.4480385 3.0088283,0 5.4480423,-2.439019 5.4480423,-5.4480385 0,-0.6017665 0.487745,-1.0895109 1.089512,-1.0895109 0.601765,0 1.089705,0.4877445 1.089705,1.0895109 0,4.2125985 -3.414902,7.6272555 -7.6272593,7.6272555 -4.2124031,0 -7.62725507,-3.414704 -7.62725507,-7.6272555 0,-4.2124069 3.41489897,-7.62725887 7.62725507,-7.62725887 z M 5.8017626,9.2649198 5.7692726,5.7001006 c 0.0023,-1.450006 2.1779011,-1.453995 2.1752747,-0.0037 v 0.01442 c -0.0036,0.4491229 0.2527158,0.5564576 0.5723341,0.236688 l 1.4133299,-1.413134 c 0.4250597,-0.42506 1.1148057,-0.423536 1.5414067,0.003 l -0.0091,-0.0091 c 0.427726,0.427707 0.427918,1.116693 0.0034,1.5413947 l -1.413375,1.4133265 c -0.3190332,0.319034 -0.2135746,0.5761323 0.237134,0.5726779 l 0.01443,-1.821e-4 c 1.450006,-0.00273 1.446162,2.1727964 -0.004,2.1752754 L 6.7626158,10.220099 C 6.2370239,10.218409 5.8066766,9.790857 5.8019116,9.2648892 Z"
     id="path64" />
</svg>
