<?xml version="1.0" encoding="UTF-8" standalone="no"?>
<!-- Created with Inkscape (http://www.inkscape.org/) -->

<svg
   xmlns:dc="http://purl.org/dc/elements/1.1/"
   xmlns:cc="http://creativecommons.org/ns#"
   xmlns:rdf="http://www.w3.org/1999/02/22-rdf-syntax-ns#"
   xmlns:svg="http://www.w3.org/2000/svg"
   xmlns="http://www.w3.org/2000/svg"
   xmlns:sodipodi="http://sodipodi.sourceforge.net/DTD/sodipodi-0.dtd"
   xmlns:inkscape="http://www.inkscape.org/namespaces/inkscape"
   width="250mm"
   height="30mm"
   viewBox="0 0 250 30"
   version="1.1"
   id="svg8"
   inkscape:version="0.92.5 (2060ec1f9f, 2020-04-08)"
   sodipodi:docname="logo.svg">
  <defs
     id="defs2" />
  <sodipodi:namedview
     id="base"
     pagecolor="#ffffff"
     bordercolor="#666666"
     borderopacity="1.0"
     inkscape:pageopacity="0.0"
     inkscape:pageshadow="2"
     inkscape:zoom="1.4"
     inkscape:cx="446.16158"
     inkscape:cy="20.47691"
     inkscape:document-units="mm"
     inkscape:current-layer="text1372"
     showgrid="false"
     inkscape:window-width="2540"
     inkscape:window-height="1395"
     inkscape:window-x="10"
     inkscape:window-y="10"
     inkscape:window-maximized="1" />
  <metadata
     id="metadata5">
    <rdf:RDF>
      <cc:Work
         rdf:about="">
        <dc:format>image/svg+xml</dc:format>
        <dc:type
           rdf:resource="http://purl.org/dc/dcmitype/StillImage" />
        <dc:title></dc:title>
      </cc:Work>
    </rdf:RDF>
  </metadata>
  <g
     inkscape:label="Layer 1"
     inkscape:groupmode="layer"
     id="layer1"
     transform="translate(0,-267)">
    <g
       aria-label="Sceptive."
       style="font-style:normal;font-weight:normal;font-size:23.56443405px;line-height:1.25;font-family:sans-serif;letter-spacing:0px;word-spacing:0px;fill:#000000;fill-opacity:1;stroke:none;stroke-width:0.58911085"
       id="text1368">
      <path
         d="m 10.77187,272.22902 c -2.1914928,0 -3.3932789,1.17822 -3.3932789,3.39328 v 5.5612 c 0,0.44773 0.2120799,0.7305 0.6362397,0.87189 l 5.5847712,1.83802 v 3.13407 c 0,0.63624 -0.329902,0.94258 -0.942578,0.94258 h -1.131093 c -0.58911,0 -0.942577,-0.30634 -0.942577,-0.94258 v -1.81446 c 0,-0.25921 -0.117822,-0.37703 -0.377031,-0.37703 H 7.755622 c -0.2356443,0 -0.3770309,0.11782 -0.3770309,0.37703 v 2.47427 c 0,2.21505 1.2017861,3.39328 3.3932789,3.39328 h 2.639216 c 2.215057,0 3.393279,-1.17823 3.393279,-3.39328 v -5.44339 c 0,-0.44772 -0.21208,-0.70693 -0.612676,-0.87188 l -5.608335,-1.83803 v -3.25189 c 0,-0.61267 0.353467,-0.94258 0.942577,-0.94258 h 1.131093 c 0.63624,0 0.942578,0.32991 0.942578,0.94258 v 1.83803 c 0,0.23564 0.141386,0.37703 0.377031,0.37703 h 2.450701 c 0.259209,0 0.377031,-0.14139 0.377031,-0.37703 v -2.49783 c 0,-2.21506 -1.178222,-3.39328 -3.393279,-3.39328 z"
         style="font-style:normal;font-variant:normal;font-weight:normal;font-stretch:normal;font-family:Norwester;-inkscape-font-specification:Norwester;stroke-width:0.58911085"
         id="path1393" />
      <path
         d="m 28.610101,277.97874 c 0,-2.21506 -1.201786,-3.39328 -3.393278,-3.39328 h -2.639217 c -2.215057,0 -3.416843,1.17822 -3.416843,3.39328 v 9.70855 c 0,2.21505 1.201786,3.39328 3.416843,3.39328 h 2.639217 c 2.191492,0 3.393278,-1.17823 3.393278,-3.39328 v -2.54496 c 0,-0.23565 -0.141386,-0.37703 -0.377031,-0.37703 h -2.215056 c -0.259209,0 -0.377031,0.14138 -0.377031,0.37703 v 2.00298 c 0,0.63624 -0.329902,0.94257 -0.942578,0.94257 h -1.508124 c -0.612675,0 -0.942577,-0.30633 -0.942577,-0.94257 v -8.55389 c 0,-0.61268 0.306338,-0.94258 0.942577,-0.94258 h 1.508124 c 0.612676,0 0.942578,0.3299 0.942578,0.94258 v 1.93228 c 0,0.23564 0.117822,0.37703 0.377031,0.37703 h 2.215056 c 0.235645,0 0.377031,-0.14139 0.377031,-0.37703 z"
         style="font-style:normal;font-variant:normal;font-weight:normal;font-stretch:normal;font-family:Norwester;-inkscape-font-specification:Norwester;stroke-width:0.58911085"
         id="path1395" />
      <path
         d="m 40.36874,274.96249 c 0,-0.23564 -0.09426,-0.37703 -0.37703,-0.37703 h -8.671712 c -0.21208,0 -0.353467,0.14139 -0.353467,0.37703 v 15.74105 c 0,0.23564 0.141387,0.37703 0.353467,0.37703 h 8.671712 c 0.282773,0 0.37703,-0.14139 0.37703,-0.37703 v -2.35645 c 0,-0.25921 -0.09426,-0.37703 -0.37703,-0.37703 h -5.820416 v -3.48754 h 4.430114 c 0.235644,0 0.377031,-0.14138 0.377031,-0.40059 v -2.33288 c 0,-0.25921 -0.141387,-0.40059 -0.377031,-0.40059 h -4.430114 v -3.62893 h 5.820416 c 0.282773,0 0.37703,-0.16495 0.37703,-0.40059 z"
         style="font-style:normal;font-variant:normal;font-weight:normal;font-stretch:normal;font-family:Norwester;-inkscape-font-specification:Norwester;stroke-width:0.58911085"
         id="path1397" />
      <path
         d="m 42.725152,290.70354 c 0,0.23564 0.141387,0.37703 0.377031,0.37703 l 2.309315,0.0236 c 0.259209,0 0.377031,-0.14139 0.377031,-0.37703 v -4.71289 l 2.969119,-0.0236 c 2.215056,-0.0236 3.393278,-1.20179 3.393278,-3.39328 v -4.61863 c 0,-2.21506 -1.178222,-3.39328 -3.393278,-3.39328 h -5.655465 c -0.235644,0 -0.377031,0.14139 -0.377031,0.37703 z m 3.063377,-7.72914 v -5.32556 l 2.356443,-0.0236 c 0.63624,0 0.942578,0.32991 0.942578,0.94258 v 3.44041 c 0,0.58911 -0.306338,0.94258 -0.942578,0.94258 z"
         style="font-style:normal;font-variant:normal;font-weight:normal;font-stretch:normal;font-family:Norwester;-inkscape-font-specification:Norwester;stroke-width:0.58911085"
         id="path1399" />
      <path
         d="m 62.849127,274.58546 c 0.259208,0 0.377031,0.14139 0.377031,0.37703 v 2.35645 c 0,0.23564 -0.117823,0.37703 -0.377031,0.37703 h -2.733475 v 13.00757 c 0,0.2592 -0.117822,0.37703 -0.377031,0.37703 H 57.28792 c -0.235644,0 -0.377031,-0.11783 -0.377031,-0.37703 v -13.00757 h -2.733474 c -0.235644,0 -0.377031,-0.14139 -0.377031,-0.37703 v -2.35645 c 0,-0.23564 0.141387,-0.37703 0.377031,-0.37703 z"
         style="font-style:normal;font-variant:normal;font-weight:normal;font-stretch:normal;font-family:Norwester;-inkscape-font-specification:Norwester;stroke-width:0.58911085"
         id="path1401" />
      <path
         d="m 65.252673,291.08057 c -0.259209,0 -0.377031,-0.14139 -0.377031,-0.37703 v -15.74105 c 0,-0.23564 0.117822,-0.37703 0.377031,-0.37703 h 2.450701 c 0.235645,0 0.377031,0.14139 0.377031,0.37703 v 15.74105 c 0,0.23564 -0.141386,0.37703 -0.377031,0.37703 z"
         style="font-style:normal;font-variant:normal;font-weight:normal;font-stretch:normal;font-family:Norwester;-inkscape-font-specification:Norwester;stroke-width:0.58911085"
         id="path1403" />
      <path
         d="m 78.048115,274.58546 c -0.282774,0 -0.447725,0.14139 -0.518418,0.42416 l -2.356443,10.65113 -2.332879,-10.65113 c -0.07069,-0.28277 -0.235645,-0.42416 -0.518418,-0.42416 h -2.144363 c -0.353467,0 -0.494854,0.18852 -0.42416,0.51842 l 3.72318,15.55253 c 0.07069,0.28277 0.235645,0.42416 0.518418,0.42416 h 2.356443 c 0.282774,0 0.447725,-0.14139 0.518418,-0.42416 l 3.746745,-15.55253 c 0.07069,-0.3299 -0.07069,-0.51842 -0.42416,-0.51842 z"
         style="font-style:normal;font-variant:normal;font-weight:normal;font-stretch:normal;font-family:Norwester;-inkscape-font-specification:Norwester;stroke-width:0.58911085"
         id="path1405" />
      <path
         d="m 91.691887,274.96249 c 0,-0.23564 -0.09426,-0.37703 -0.377031,-0.37703 h -8.671711 c -0.21208,0 -0.353467,0.14139 -0.353467,0.37703 v 15.74105 c 0,0.23564 0.141387,0.37703 0.353467,0.37703 h 8.671711 c 0.282774,0 0.377031,-0.14139 0.377031,-0.37703 v -2.35645 c 0,-0.25921 -0.09426,-0.37703 -0.377031,-0.37703 h -5.820415 v -3.48754 h 4.430114 c 0.235644,0 0.377031,-0.14138 0.377031,-0.40059 v -2.33288 c 0,-0.25921 -0.141387,-0.40059 -0.377031,-0.40059 h -4.430114 v -3.62893 h 5.820415 c 0.282774,0 0.377031,-0.16495 0.377031,-0.40059 z"
         style="font-style:normal;font-variant:normal;font-weight:normal;font-stretch:normal;font-family:Norwester;-inkscape-font-specification:Norwester;stroke-width:0.58911085"
         id="path1407" />
      <path
         d="m 94.048299,290.60928 c 0,0.30634 0.164951,0.47129 0.471289,0.47129 h 2.144363 c 0.306338,0 0.471289,-0.16495 0.471289,-0.47129 v -2.16793 c 0,-0.30634 -0.164951,-0.47129 -0.471289,-0.47129 h -2.144363 c -0.306338,0 -0.471289,0.16495 -0.471289,0.47129 z"
         style="font-style:normal;font-variant:normal;font-weight:normal;font-stretch:normal;font-family:Norwester;-inkscape-font-specification:Norwester;stroke-width:0.58911085"
         id="path1409" />
    </g>
    <g
       aria-label="Forgiva Enterprise"
       style="font-style:normal;font-weight:normal;font-size:15.08118725px;line-height:1.25;font-family:sans-serif;letter-spacing:0px;word-spacing:0px;fill:#333333;fill-opacity:1;stroke:none;stroke-width:0.37702966"
       id="text1372">
      <path
         d="m 103.35149,279.7466 h 6.31819 v 1.25186 h -4.83069 v 3.2401 h 4.3594 v 1.25185 h -4.3594 v 5.25043 h -1.4875 z"
         style="fill:#333333;stroke-width:0.37702966"
         id="path1412" />
      <path
         d="m 114.62556,283.44326 q -1.08985,0 -1.72314,0.85421 -0.6333,0.84684 -0.6333,2.32698 0,1.48013 0.62593,2.33434 0.63329,0.84684 1.73051,0.84684 1.08249,0 1.71578,-0.8542 0.63329,-0.85421 0.63329,-2.32698 0,-1.46541 -0.63329,-2.31962 -0.63329,-0.86157 -1.71578,-0.86157 z m 0,-1.14876 q 1.76733,0 2.77618,1.14876 1.00884,1.14876 1.00884,3.18119 0,2.02506 -1.00884,3.18118 -1.00885,1.14877 -2.77618,1.14877 -1.77469,0 -2.78354,-1.14877 -1.00148,-1.15612 -1.00148,-3.18118 0,-2.03243 1.00148,-3.18119 1.00885,-1.14876 2.78354,-1.14876 z"
         style="fill:#333333;stroke-width:0.37702966"
         id="path1414" />
      <path
         d="m 125.43571,283.7599 q -0.22828,-0.13254 -0.50075,-0.19146 -0.26509,-0.0663 -0.5891,-0.0663 -1.14877,0 -1.76733,0.75111 -0.6112,0.74375 -0.6112,2.14289 v 4.34467 h -1.36232 v -8.24752 h 1.36232 v 1.28131 q 0.4271,-0.75111 1.11194,-1.11194 0.68484,-0.36819 1.66423,-0.36819 0.13992,0 0.30929,0.0221 0.16937,0.0147 0.37555,0.0515 z"
         style="fill:#333333;stroke-width:0.37702966"
         id="path1416" />
      <path
         d="m 132.019,286.52135 q 0,-1.47277 -0.6112,-2.28279 -0.60384,-0.81003 -1.70105,-0.81003 -1.08985,0 -1.70106,0.81003 -0.60383,0.81002 -0.60383,2.28279 0,1.46541 0.60383,2.27544 0.61121,0.81002 1.70106,0.81002 1.09721,0 1.70105,-0.81002 0.6112,-0.81003 0.6112,-2.27544 z m 1.35495,3.19592 q 0,2.10606 -0.93521,3.12964 -0.93521,1.03094 -2.86454,1.03094 -0.7143,0 -1.34759,-0.11046 -0.63329,-0.10309 -1.22976,-0.32401 v -1.31813 q 0.59647,0.32401 1.17821,0.47865 0.58175,0.15464 1.18559,0.15464 1.33285,0 1.9956,-0.69956 0.66275,-0.69221 0.66275,-2.0987 v -0.67012 q -0.41974,0.72903 -1.07512,1.08986 -0.65539,0.36082 -1.56851,0.36082 -1.51695,0 -2.4448,-1.15612 -0.92785,-1.15613 -0.92785,-3.06337 0,-1.9146 0.92785,-3.07073 0.92785,-1.15612 2.4448,-1.15612 0.91312,0 1.56851,0.36083 0.65538,0.36082 1.07512,1.08985 v -1.25186 h 1.35495 z"
         style="fill:#333333;stroke-width:0.37702966"
         id="path1418" />
      <path
         d="m 136.16485,282.49332 h 1.35496 v 8.24752 h -1.35496 z m 0,-3.21064 h 1.35496 v 1.71578 h -1.35496 z"
         style="fill:#333333;stroke-width:0.37702966"
         id="path1420" />
      <path
         d="m 139.38286,282.49332 h 1.43595 l 2.57736,6.92203 2.57735,-6.92203 h 1.43595 l -3.09282,8.24752 h -1.84097 z"
         style="fill:#333333;stroke-width:0.37702966"
         id="path1422" />
      <path
         d="m 153.0281,286.59499 q -1.64215,0 -2.27544,0.37556 -0.63329,0.37555 -0.63329,1.28131 0,0.72166 0.47129,1.14876 0.47865,0.41974 1.29604,0.41974 1.12667,0 1.80414,-0.79529 0.68484,-0.80267 0.68484,-2.12816 v -0.30192 z m 2.70253,-0.55965 v 4.7055 h -1.35495 v -1.25185 q -0.46392,0.75111 -1.15612,1.11194 -0.69221,0.35347 -1.69369,0.35347 -1.26659,0 -2.0177,-0.70693 -0.74375,-0.7143 -0.74375,-1.90724 0,-1.39177 0.92785,-2.0987 0.93521,-0.70693 2.78354,-0.70693 h 1.89987 v -0.13255 q 0,-0.93521 -0.61856,-1.44332 -0.6112,-0.51547 -1.72315,-0.51547 -0.70693,0 -1.37704,0.16937 -0.67011,0.16937 -1.28867,0.5081 v -1.25185 q 0.74375,-0.28719 1.44331,-0.42711 0.69957,-0.14727 1.36232,-0.14727 1.78942,0 2.67308,0.92784 0.88366,0.92785 0.88366,2.813 z"
         style="fill:#333333;stroke-width:0.37702966"
         id="path1424" />
      <path
         d="m 163.37432,279.7466 h 6.95148 v 1.25186 h -5.46398 v 3.25482 h 5.23571 v 1.25186 h -5.23571 v 3.98385 h 5.59653 v 1.25185 h -7.08403 z"
         style="fill:#333333;stroke-width:0.37702966"
         id="path1426" />
      <path
         d="m 179.7,285.76287 v 4.97797 h -1.35495 v -4.93378 q 0,-1.17086 -0.45656,-1.7526 -0.45656,-0.58175 -1.36968,-0.58175 -1.09721,0 -1.73051,0.69957 -0.63329,0.69957 -0.63329,1.90724 v 4.66132 h -1.36231 v -8.24752 h 1.36231 v 1.28131 q 0.48602,-0.74375 1.1414,-1.11194 0.66275,-0.36819 1.52432,-0.36819 1.42122,0 2.15025,0.88366 0.72902,0.8763 0.72902,2.58471 z"
         style="fill:#333333;stroke-width:0.37702966"
         id="path1428" />
      <path
         d="m 183.74276,280.15161 v 2.34171 h 2.7909 v 1.05303 h -2.7909 v 4.47723 q 0,1.00885 0.27246,1.29604 0.27983,0.28719 1.12667,0.28719 h 1.39177 v 1.13403 h -1.39177 q -1.5685,0 -2.16498,-0.58174 -0.59647,-0.58911 -0.59647,-2.13552 v -4.47723 h -0.99412 v -1.05303 h 0.99412 v -2.34171 z"
         style="fill:#333333;stroke-width:0.37702966"
         id="path1430" />
      <path
         d="m 195.3703,286.27834 v 0.66275 h -6.22983 q 0.0884,1.39914 0.83948,2.13552 0.75848,0.72902 2.10607,0.72902 0.78056,0 1.50959,-0.19146 0.73638,-0.19146 1.45804,-0.57438 v 1.28131 q -0.72902,0.30929 -1.49486,0.47129 -0.76584,0.16201 -1.55378,0.16201 -1.97351,0 -3.12964,-1.14877 -1.14876,-1.14876 -1.14876,-3.10754 0,-2.02507 1.08985,-3.21065 1.09722,-1.19294 2.95291,-1.19294 1.66423,0 2.6289,1.07512 0.97203,1.06776 0.97203,2.90872 z m -1.35495,-0.39764 q -0.0147,-1.11195 -0.62593,-1.77469 -0.60384,-0.66275 -1.60532,-0.66275 -1.13404,0 -1.81888,0.64065 -0.67747,0.64066 -0.78057,1.80415 z"
         style="fill:#333333;stroke-width:0.37702966"
         id="path1432" />
      <path
         d="m 202.37333,283.7599 q -0.22828,-0.13254 -0.50074,-0.19146 -0.2651,-0.0663 -0.58911,-0.0663 -1.14876,0 -1.76733,0.75111 -0.6112,0.74375 -0.6112,2.14289 v 4.34467 h -1.36231 v -8.24752 h 1.36231 v 1.28131 q 0.4271,-0.75111 1.11194,-1.11194 0.68484,-0.36819 1.66424,-0.36819 0.13991,0 0.30928,0.0221 0.16937,0.0147 0.37556,0.0515 z"
         style="fill:#333333;stroke-width:0.37702966"
         id="path1434" />
      <path
         d="m 205.10532,289.50372 v 4.37413 h -1.36231 v -11.38453 h 1.36231 v 1.25186 q 0.42711,-0.73639 1.07513,-1.08985 0.65538,-0.36083 1.56113,-0.36083 1.50223,0 2.43744,1.19294 0.94258,1.19295 0.94258,3.13701 0,1.94406 -0.94258,3.137 -0.93521,1.19295 -2.43744,1.19295 -0.90575,0 -1.56113,-0.35347 -0.64802,-0.36083 -1.07513,-1.09721 z m 4.60978,-2.87927 q 0,-1.49487 -0.61857,-2.34171 -0.6112,-0.85421 -1.68632,-0.85421 -1.07512,0 -1.69369,0.85421 -0.6112,0.84684 -0.6112,2.34171 0,1.49486 0.6112,2.34907 0.61857,0.84684 1.69369,0.84684 1.07512,0 1.68632,-0.84684 0.61857,-0.85421 0.61857,-2.34907 z"
         style="fill:#333333;stroke-width:0.37702966"
         id="path1436" />
      <path
         d="m 218.14672,283.7599 q -0.22828,-0.13254 -0.50074,-0.19146 -0.2651,-0.0663 -0.58911,-0.0663 -1.14876,0 -1.76733,0.75111 -0.6112,0.74375 -0.6112,2.14289 v 4.34467 h -1.36231 v -8.24752 h 1.36231 v 1.28131 q 0.42711,-0.75111 1.11195,-1.11194 0.68483,-0.36819 1.66423,-0.36819 0.13991,0 0.30928,0.0221 0.16937,0.0147 0.37556,0.0515 z"
         style="fill:#333333;stroke-width:0.37702966"
         id="path1438" />
      <path
         d="m 219.56794,282.49332 h 1.35495 v 8.24752 h -1.35495 z m 0,-3.21064 h 1.35495 v 1.71578 h -1.35495 z"
         style="fill:#333333;stroke-width:0.37702966"
         id="path1440" />
      <path
         d="m 229.01578,282.73633 v 1.28131 q -0.57439,-0.29455 -1.19295,-0.44183 -0.61856,-0.14728 -1.28131,-0.14728 -1.00885,0 -1.51696,0.30928 -0.50074,0.30929 -0.50074,0.92785 0,0.47129 0.36083,0.74375 0.36083,0.2651 1.45068,0.50811 l 0.46392,0.10309 q 1.44332,0.30928 2.04716,0.8763 0.6112,0.55965 0.6112,1.5685 0,1.14876 -0.91312,1.81888 -0.90576,0.67011 -2.49635,0.67011 -0.66275,0 -1.38441,-0.13255 -0.71429,-0.12519 -1.50959,-0.38292 v -1.39914 q 0.75112,0.39029 1.48014,0.58911 0.72902,0.19146 1.44332,0.19146 0.9573,0 1.47277,-0.32401 0.51547,-0.33137 0.51547,-0.92784 0,-0.55229 -0.37556,-0.84685 -0.36819,-0.29455 -1.62741,-0.56702 l -0.47129,-0.11045 q -1.25922,-0.2651 -1.81887,-0.81003 -0.55966,-0.55229 -0.55966,-1.50959 0,-1.16349 0.82476,-1.79678 0.82475,-0.63329 2.3417,-0.63329 0.75112,0 1.41386,0.11045 0.66275,0.11046 1.22241,0.33138 z"
         style="fill:#333333;stroke-width:0.37702966"
         id="path1442" />
      <path
         d="m 238.6698,286.27834 v 0.66275 h -6.22982 q 0.0884,1.39914 0.83948,2.13552 0.75848,0.72902 2.10606,0.72902 0.78057,0 1.50959,-0.19146 0.73639,-0.19146 1.45805,-0.57438 v 1.28131 q -0.72902,0.30929 -1.49487,0.47129 -0.76584,0.16201 -1.55377,0.16201 -1.97351,0 -3.12964,-1.14877 -1.14876,-1.14876 -1.14876,-3.10754 0,-2.02507 1.08985,-3.21065 1.09721,-1.19294 2.95291,-1.19294 1.66423,0 2.62889,1.07512 0.97203,1.06776 0.97203,2.90872 z m -1.35495,-0.39764 q -0.0147,-1.11195 -0.62592,-1.77469 -0.60384,-0.66275 -1.60533,-0.66275 -1.13403,0 -1.81887,0.64065 -0.67747,0.64066 -0.78057,1.80415 z"
         style="fill:#333333;stroke-width:0.37702966"
         id="path1444" />
    </g>
  </g>
</svg>
