<svg width="16" height="16" viewBox="0 0 16 16" fill="none" xmlns="http://www.w3.org/2000/svg">
<path fill-rule="evenodd" clip-rule="evenodd" d="M6.5 13C2.91015 13 0 10.0899 0 6.5C0 2.91015 2.91015 0 6.5 0C10.0899 0 13 2.91015 13 6.5C13 8.11514 12.4109 9.59268 11.4359 10.7295L15.9988 15.2874L15.2921 15.9949L10.7287 11.4366C9.59199 12.4112 8.11476 13 6.5 13ZM6.5 12C9.53757 12 12 9.53757 12 6.5C12 3.46243 9.53757 1 6.5 1C3.46243 1 1 3.46243 1 6.5C1 9.53757 3.46243 12 6.5 12Z" fill="#5A6872"/>
</svg>
