<svg width="84" height="84" viewBox="0 0 84 84" fill="none" xmlns="http://www.w3.org/2000/svg">
<path fill-rule="evenodd" clip-rule="evenodd" d="M41.18 -0.000488281C27.282 0.000499954 13.682 6.81142 5.682 19.2652C2.869 23.645 0.998 28.348 0 33.1439L7.892 34.4909C8.709 30.6911 10.209 26.9694 12.436 23.5027C18.71 13.737 29.455 7.90638 41.18 7.90539C47.613 7.90539 53.9 9.71782 59.363 13.145C75.191 23.0748 79.892 43.8791 69.844 59.5199C63.57 69.2857 52.825 75.1163 41.1 75.1163C34.667 75.1163 28.38 73.3048 22.917 69.8776C20.376 68.2836 18.141 66.3971 16.19 64.3089L10.144 69.4932C12.595 72.1427 15.415 74.5352 18.629 76.5522C25.61 80.932 33.401 83.0221 41.1 83.0221C54.998 83.0221 68.598 76.2102 76.598 63.7575C89.03 44.4049 83.234 18.7572 63.651 6.47048C56.67 2.09062 48.879 -0.000488281 41.18 -0.000488281Z" fill="#5AAAFA"/>
</svg>
