<svg width="24" height="24" viewBox="0 0 24 24" fill="none" xmlns="http://www.w3.org/2000/svg">
<path fill-rule="evenodd" clip-rule="evenodd" d="M19 19.1356C17.196 20.9056 14.727 21.9996 12 21.9996C9.273 21.9996 6.804 20.9056 5 19.1356V17.4986C5 16.2026 5.74 15.4986 7 15.4986H17C18.26 15.4986 19 16.2026 19 17.4986V19.1356ZM12 4.5836C14.761 4.5836 17 6.8216 17 9.5836C17 12.3446 14.761 14.5836 12 14.5836C9.239 14.5836 7 12.3446 7 9.5836C7 6.8216 9.239 4.5836 12 4.5836ZM12 -0.000396729C5.373 -0.000396729 0 5.3726 0 11.9996C0 18.6276 5.373 23.9996 12 23.9996C18.627 23.9996 24 18.6276 24 11.9996C24 5.3726 18.627 -0.000396729 12 -0.000396729Z" fill="#fff"/>
</svg>
